<?xml version="1.0" encoding="UTF-8" standalone="no"?>
<!DOCTYPE svg PUBLIC "-//W3C//DTD SVG 1.1//EN"
 "http://www.w3.org/Graphics/SVG/1.1/DTD/svg11.dtd">
<!-- Generated by graphviz version 2.43.0 (0)
 -->
<!-- Title: Perl Pages: 1 -->
<svg width="479pt" height="741pt"
 viewBox="0.00 0.00 478.91 741.00" xmlns="http://www.w3.org/2000/svg" xmlns:xlink="http://www.w3.org/1999/xlink">
<g id="graph0" class="graph" transform="scale(1 1) rotate(0) translate(4 737)">
<title>Perl</title>
<polygon fill="white" stroke="transparent" points="-4,4 -4,-737 474.91,-737 474.91,4 -4,4"/>
<!-- File -->
<g id="node1" class="node">
<title>File</title>
<path fill="none" stroke="black" d="M195.25,-446.5C195.25,-446.5 421.47,-446.5 421.47,-446.5 427.47,-446.5 433.47,-452.5 433.47,-458.5 433.47,-458.5 433.47,-720.5 433.47,-720.5 433.47,-726.5 427.47,-732.5 421.47,-732.5 421.47,-732.5 195.25,-732.5 195.25,-732.5 189.25,-732.5 183.25,-726.5 183.25,-720.5 183.25,-720.5 183.25,-458.5 183.25,-458.5 183.25,-452.5 189.25,-446.5 195.25,-446.5"/>
<text text-anchor="middle" x="202.14" y="-585.3" font-family="Times,serif" font-size="14.00">File</text>
<polyline fill="none" stroke="black" points="221.03,-446.5 221.03,-732.5 "/>
<text text-anchor="middle" x="230.78" y="-585.3" font-family="Times,serif" font-size="14.00"> </text>
<polyline fill="none" stroke="black" points="240.53,-446.5 240.53,-732.5 "/>
<text text-anchor="middle" x="327.25" y="-717.3" font-family="Times,serif" font-size="14.00">Data format</text>
<polyline fill="none" stroke="black" points="240.53,-710.5 413.97,-710.5 "/>
<text text-anchor="middle" x="327.25" y="-695.3" font-family="Times,serif" font-size="14.00">Platform</text>
<polyline fill="none" stroke="black" points="240.53,-688.5 413.97,-688.5 "/>
<text text-anchor="middle" x="327.25" y="-673.3" font-family="Times,serif" font-size="14.00">Upload date</text>
<polyline fill="none" stroke="black" points="240.53,-666.5 413.97,-666.5 "/>
<text text-anchor="middle" x="327.25" y="-651.3" font-family="Times,serif" font-size="14.00">Published date</text>
<polyline fill="none" stroke="black" points="240.53,-644.5 413.97,-644.5 "/>
<text text-anchor="middle" x="327.25" y="-629.3" font-family="Times,serif" font-size="14.00">Experimental strategy</text>
<polyline fill="none" stroke="black" points="240.53,-622.5 413.97,-622.5 "/>
<text text-anchor="middle" x="327.25" y="-607.3" font-family="Times,serif" font-size="14.00">File size</text>
<polyline fill="none" stroke="black" points="240.53,-600.5 413.97,-600.5 "/>
<text text-anchor="middle" x="327.25" y="-585.3" font-family="Times,serif" font-size="14.00">Data submitting center</text>
<polyline fill="none" stroke="black" points="240.53,-578.5 413.97,-578.5 "/>
<text text-anchor="middle" x="327.25" y="-563.3" font-family="Times,serif" font-size="14.00">Reference genome</text>
<polyline fill="none" stroke="black" points="240.53,-556.5 413.97,-556.5 "/>
<text text-anchor="middle" x="327.25" y="-541.3" font-family="Times,serif" font-size="14.00">Last modified date</text>
<polyline fill="none" stroke="black" points="240.53,-534.5 413.97,-534.5 "/>
<text text-anchor="middle" x="327.25" y="-519.3" font-family="Times,serif" font-size="14.00">Access level</text>
<polyline fill="none" stroke="black" points="240.53,-512.5 413.97,-512.5 "/>
<text text-anchor="middle" x="327.25" y="-497.3" font-family="Times,serif" font-size="14.00">Data submitting center code</text>
<polyline fill="none" stroke="black" points="240.53,-490.5 413.97,-490.5 "/>
<text text-anchor="middle" x="327.25" y="-475.3" font-family="Times,serif" font-size="14.00">Submitter ID</text>
<polyline fill="none" stroke="black" points="240.53,-468.5 413.97,-468.5 "/>
<text text-anchor="middle" x="327.25" y="-453.3" font-family="Times,serif" font-size="14.00">Analyte type</text>
<polyline fill="none" stroke="black" points="413.97,-446.5 413.97,-732.5 "/>
<text text-anchor="middle" x="423.72" y="-585.3" font-family="Times,serif" font-size="14.00"> </text>
</g>
<!-- CCLE Cell line -->
<g id="node2" class="node">
<title>CCLE Cell line</title>
<path fill="none" stroke="black" d="M12,-87.5C12,-87.5 290.72,-87.5 290.72,-87.5 296.72,-87.5 302.72,-93.5 302.72,-99.5 302.72,-99.5 302.72,-383.5 302.72,-383.5 302.72,-389.5 296.72,-395.5 290.72,-395.5 290.72,-395.5 12,-395.5 12,-395.5 6,-395.5 0,-389.5 0,-383.5 0,-383.5 0,-99.5 0,-99.5 0,-93.5 6,-87.5 12,-87.5"/>
<text text-anchor="middle" x="51.55" y="-237.3" font-family="Times,serif" font-size="14.00">CCLE Cell line</text>
<polyline fill="none" stroke="black" points="103.1,-87.5 103.1,-395.5 "/>
<text text-anchor="middle" x="112.85" y="-237.3" font-family="Times,serif" font-size="14.00"> </text>
<polyline fill="none" stroke="black" points="122.6,-87.5 122.6,-395.5 "/>
<text text-anchor="middle" x="202.91" y="-380.3" font-family="Times,serif" font-size="14.00">Gender</text>
<polyline fill="none" stroke="black" points="122.6,-373.5 283.22,-373.5 "/>
<text text-anchor="middle" x="202.91" y="-358.3" font-family="Times,serif" font-size="14.00">Primary site</text>
<polyline fill="none" stroke="black" points="122.6,-351.5 283.22,-351.5 "/>
<text text-anchor="middle" x="202.91" y="-336.3" font-family="Times,serif" font-size="14.00">Disease type</text>
<polyline fill="none" stroke="black" points="122.6,-329.5 283.22,-329.5 "/>
<text text-anchor="middle" x="202.91" y="-314.3" font-family="Times,serif" font-size="14.00">Sample type code</text>
<polyline fill="none" stroke="black" points="122.6,-307.5 283.22,-307.5 "/>
<text text-anchor="middle" x="202.91" y="-292.3" font-family="Times,serif" font-size="14.00">Sample name</text>
<polyline fill="none" stroke="black" points="122.6,-285.5 283.22,-285.5 "/>
<text text-anchor="middle" x="202.91" y="-270.3" font-family="Times,serif" font-size="14.00">Investigation</text>
<polyline fill="none" stroke="black" points="122.6,-263.5 283.22,-263.5 "/>
<text text-anchor="middle" x="202.91" y="-248.3" font-family="Times,serif" font-size="14.00">Disease type abbreviation</text>
<polyline fill="none" stroke="black" points="122.6,-241.5 283.22,-241.5 "/>
<text text-anchor="middle" x="202.91" y="-226.3" font-family="Times,serif" font-size="14.00">Sample type</text>
<polyline fill="none" stroke="black" points="122.6,-219.5 283.22,-219.5 "/>
<text text-anchor="middle" x="202.91" y="-204.3" font-family="Times,serif" font-size="14.00">Source</text>
<polyline fill="none" stroke="black" points="122.6,-197.5 283.22,-197.5 "/>
<text text-anchor="middle" x="202.91" y="-182.3" font-family="Times,serif" font-size="14.00">Note</text>
<polyline fill="none" stroke="black" points="122.6,-175.5 283.22,-175.5 "/>
<text text-anchor="middle" x="202.91" y="-160.3" font-family="Times,serif" font-size="14.00">Program</text>
<polyline fill="none" stroke="black" points="122.6,-153.5 283.22,-153.5 "/>
<text text-anchor="middle" x="202.91" y="-138.3" font-family="Times,serif" font-size="14.00">ID</text>
<polyline fill="none" stroke="black" points="122.6,-131.5 283.22,-131.5 "/>
<text text-anchor="middle" x="202.91" y="-116.3" font-family="Times,serif" font-size="14.00">Histology</text>
<polyline fill="none" stroke="black" points="122.6,-109.5 283.22,-109.5 "/>
<text text-anchor="middle" x="202.91" y="-94.3" font-family="Times,serif" font-size="14.00">Histologic diagnosis</text>
<polyline fill="none" stroke="black" points="283.22,-87.5 283.22,-395.5 "/>
<text text-anchor="middle" x="292.97" y="-237.3" font-family="Times,serif" font-size="14.00"> </text>
</g>
<!-- File&#45;&gt;CCLE Cell line -->
<g id="edge1" class="edge">
<title>File&#45;&gt;CCLE Cell line</title>
<path fill="none" stroke="black" d="M182.9,-477.76C171.27,-462.22 161.17,-445.52 153.97,-428 150.99,-420.77 148.56,-413.25 146.6,-405.55"/>
<polygon fill="black" stroke="black" points="149.99,-404.69 144.35,-395.72 143.17,-406.25 149.99,-404.69"/>
<text text-anchor="middle" x="206.06" y="-416.8" font-family="Times,serif" font-size="14.00">has_ccle_cell_line</text>
</g>
<!-- Aliquot -->
<g id="node3" class="node">
<title>Aliquot</title>
<path fill="none" stroke="black" d="M227.08,-0.5C227.08,-0.5 331.63,-0.5 331.63,-0.5 337.63,-0.5 343.63,-6.5 343.63,-12.5 343.63,-12.5 343.63,-24.5 343.63,-24.5 343.63,-30.5 337.63,-36.5 331.63,-36.5 331.63,-36.5 227.08,-36.5 227.08,-36.5 221.08,-36.5 215.08,-30.5 215.08,-24.5 215.08,-24.5 215.08,-12.5 215.08,-12.5 215.08,-6.5 221.08,-0.5 227.08,-0.5"/>
<text text-anchor="middle" x="244.47" y="-14.3" font-family="Times,serif" font-size="14.00">Aliquot</text>
<polyline fill="none" stroke="black" points="273.86,-0.5 273.86,-36.5 "/>
<text text-anchor="middle" x="283.61" y="-14.3" font-family="Times,serif" font-size="14.00"> </text>
<polyline fill="none" stroke="black" points="293.36,-0.5 293.36,-36.5 "/>
<text text-anchor="middle" x="308.75" y="-14.3" font-family="Times,serif" font-size="14.00">ID</text>
<polyline fill="none" stroke="black" points="324.13,-0.5 324.13,-36.5 "/>
<text text-anchor="middle" x="333.88" y="-14.3" font-family="Times,serif" font-size="14.00"> </text>
</g>
<!-- File&#45;&gt;Aliquot -->
<g id="edge4" class="edge">
<title>File&#45;&gt;Aliquot</title>
<path fill="none" stroke="black" d="M313.92,-446.31C317.71,-341.92 322.39,-196.67 324.36,-69 324.45,-62.78 327.07,-60.6 324.36,-55 322.35,-50.86 319.6,-47.06 316.44,-43.6"/>
<polygon fill="black" stroke="black" points="318.68,-40.91 309,-36.61 313.89,-46.01 318.68,-40.91"/>
<text text-anchor="middle" x="356.63" y="-237.3" font-family="Times,serif" font-size="14.00">has_aliquot</text>
</g>
<!-- CCLE Cell line&#45;&gt;File -->
<g id="edge5" class="edge">
<title>CCLE Cell line&#45;&gt;File</title>
<path fill="none" stroke="black" d="M248.74,-395.69C251.77,-401.81 254.65,-407.92 257.36,-414 260.65,-421.38 263.78,-429.03 266.77,-436.82"/>
<polygon fill="black" stroke="black" points="263.57,-438.23 270.34,-446.38 270.12,-435.79 263.57,-438.23"/>
<text text-anchor="middle" x="285.13" y="-416.8" font-family="Times,serif" font-size="14.00">has_file</text>
</g>
<!-- CCLE Cell line&#45;&gt;Aliquot -->
<g id="edge3" class="edge">
<title>CCLE Cell line&#45;&gt;Aliquot</title>
<path fill="none" stroke="black" d="M127.02,-87.13C130.24,-75.59 135.32,-64.69 142.81,-55 151.05,-44.34 177.42,-36.29 204.82,-30.57"/>
<polygon fill="black" stroke="black" points="205.79,-33.95 214.92,-28.57 204.43,-27.08 205.79,-33.95"/>
<text text-anchor="middle" x="175.63" y="-57.8" font-family="Times,serif" font-size="14.00">has_aliquot</text>
</g>
<!-- Aliquot&#45;&gt;File -->
<g id="edge6" class="edge">
<title>Aliquot&#45;&gt;File</title>
<path fill="none" stroke="black" d="M331.01,-36.51C354.44,-47.1 379.87,-63.32 393.36,-87 454.15,-193.69 423.82,-332.44 383.43,-436.94"/>
<polygon fill="black" stroke="black" points="380.15,-435.72 379.74,-446.31 386.66,-438.28 380.15,-435.72"/>
<text text-anchor="middle" x="449.13" y="-237.3" font-family="Times,serif" font-size="14.00">has_file</text>
</g>
<!-- Aliquot&#45;&gt;CCLE Cell line -->
<g id="edge2" class="edge">
<title>Aliquot&#45;&gt;CCLE Cell line</title>
<path fill="none" stroke="black" d="M242.79,-36.59C234.79,-41.64 226.94,-47.78 220.97,-55 214.86,-62.37 209.26,-70.33 204.12,-78.67"/>
<polygon fill="black" stroke="black" points="200.99,-77.09 198.94,-87.49 207.03,-80.64 200.99,-77.09"/>
<text text-anchor="middle" x="273.06" y="-57.8" font-family="Times,serif" font-size="14.00">has_ccle_cell_line</text>
</g>
</g>
</svg>
