<?xml version="1.0" encoding="UTF-8" standalone="no"?>
<!DOCTYPE svg PUBLIC "-//W3C//DTD SVG 1.1//EN"
 "http://www.w3.org/Graphics/SVG/1.1/DTD/svg11.dtd">
<!-- Generated by graphviz version 2.43.0 (0)
 -->
<!-- Title: Perl Pages: 1 -->
<svg width="971pt" height="1048pt"
 viewBox="0.00 0.00 971.15 1048.00" xmlns="http://www.w3.org/2000/svg" xmlns:xlink="http://www.w3.org/1999/xlink">
<g id="graph0" class="graph" transform="scale(1 1) rotate(0) translate(4 1044)">
<title>Perl</title>
<polygon fill="white" stroke="transparent" points="-4,4 -4,-1044 967.15,-1044 967.15,4 -4,4"/>
<!-- Demographic -->
<g id="node1" class="node">
<title>Demographic</title>
<path fill="none" stroke="black" d="M310.9,-973.5C310.9,-973.5 485.42,-973.5 485.42,-973.5 491.42,-973.5 497.42,-979.5 497.42,-985.5 497.42,-985.5 497.42,-1027.5 497.42,-1027.5 497.42,-1033.5 491.42,-1039.5 485.42,-1039.5 485.42,-1039.5 310.9,-1039.5 310.9,-1039.5 304.9,-1039.5 298.9,-1033.5 298.9,-1027.5 298.9,-1027.5 298.9,-985.5 298.9,-985.5 298.9,-979.5 304.9,-973.5 310.9,-973.5"/>
<text text-anchor="middle" x="345" y="-1002.3" font-family="Times,serif" font-size="14.00">Demographic</text>
<polyline fill="none" stroke="black" points="391.09,-973.5 391.09,-1039.5 "/>
<text text-anchor="middle" x="400.84" y="-1002.3" font-family="Times,serif" font-size="14.00"> </text>
<polyline fill="none" stroke="black" points="410.59,-973.5 410.59,-1039.5 "/>
<text text-anchor="middle" x="444.26" y="-1024.3" font-family="Times,serif" font-size="14.00">Race</text>
<polyline fill="none" stroke="black" points="410.59,-1017.5 477.92,-1017.5 "/>
<text text-anchor="middle" x="444.26" y="-1002.3" font-family="Times,serif" font-size="14.00">Ethnicity</text>
<polyline fill="none" stroke="black" points="410.59,-995.5 477.92,-995.5 "/>
<text text-anchor="middle" x="444.26" y="-980.3" font-family="Times,serif" font-size="14.00">Gender</text>
<polyline fill="none" stroke="black" points="477.92,-973.5 477.92,-1039.5 "/>
<text text-anchor="middle" x="487.67" y="-1002.3" font-family="Times,serif" font-size="14.00"> </text>
</g>
<!-- Case -->
<g id="node2" class="node">
<title>Case</title>
<path fill="none" stroke="black" d="M324.31,-856.5C324.31,-856.5 472.01,-856.5 472.01,-856.5 478.01,-856.5 484.01,-862.5 484.01,-868.5 484.01,-868.5 484.01,-910.5 484.01,-910.5 484.01,-916.5 478.01,-922.5 472.01,-922.5 472.01,-922.5 324.31,-922.5 324.31,-922.5 318.31,-922.5 312.31,-916.5 312.31,-910.5 312.31,-910.5 312.31,-868.5 312.31,-868.5 312.31,-862.5 318.31,-856.5 324.31,-856.5"/>
<text text-anchor="middle" x="333.91" y="-885.3" font-family="Times,serif" font-size="14.00">Case</text>
<polyline fill="none" stroke="black" points="355.52,-856.5 355.52,-922.5 "/>
<text text-anchor="middle" x="365.27" y="-885.3" font-family="Times,serif" font-size="14.00"> </text>
<polyline fill="none" stroke="black" points="375.02,-856.5 375.02,-922.5 "/>
<text text-anchor="middle" x="419.77" y="-907.3" font-family="Times,serif" font-size="14.00">Disease type</text>
<polyline fill="none" stroke="black" points="375.02,-900.5 464.51,-900.5 "/>
<text text-anchor="middle" x="419.77" y="-885.3" font-family="Times,serif" font-size="14.00">Primary site</text>
<polyline fill="none" stroke="black" points="375.02,-878.5 464.51,-878.5 "/>
<text text-anchor="middle" x="419.77" y="-863.3" font-family="Times,serif" font-size="14.00">Submitter ID</text>
<polyline fill="none" stroke="black" points="464.51,-856.5 464.51,-922.5 "/>
<text text-anchor="middle" x="474.26" y="-885.3" font-family="Times,serif" font-size="14.00"> </text>
</g>
<!-- Demographic&#45;&gt;Case -->
<g id="edge18" class="edge">
<title>Demographic&#45;&gt;Case</title>
<path fill="none" stroke="black" d="M368.73,-973.35C364.91,-967.59 361.57,-961.38 359.41,-955 356.75,-947.17 357.77,-939.27 360.82,-931.82"/>
<polygon fill="black" stroke="black" points="364.09,-933.13 365.64,-922.65 357.89,-929.87 364.09,-933.13"/>
<text text-anchor="middle" x="385.03" y="-943.8" font-family="Times,serif" font-size="14.00">has_case</text>
</g>
<!-- Case&#45;&gt;Demographic -->
<g id="edge1" class="edge">
<title>Case&#45;&gt;Demographic</title>
<path fill="none" stroke="black" d="M409.17,-922.52C410.83,-928.59 412.28,-934.94 413.16,-941 414.22,-948.27 413.81,-955.94 412.6,-963.34"/>
<polygon fill="black" stroke="black" points="409.16,-962.71 410.53,-973.22 416.01,-964.15 409.16,-962.71"/>
<text text-anchor="middle" x="463.53" y="-943.8" font-family="Times,serif" font-size="14.00">has_demographic</text>
</g>
<!-- Diagnosis -->
<g id="node3" class="node">
<title>Diagnosis</title>
<path fill="none" stroke="black" d="M12,-739.5C12,-739.5 208.32,-739.5 208.32,-739.5 214.32,-739.5 220.32,-745.5 220.32,-751.5 220.32,-751.5 220.32,-793.5 220.32,-793.5 220.32,-799.5 214.32,-805.5 208.32,-805.5 208.32,-805.5 12,-805.5 12,-805.5 6,-805.5 0,-799.5 0,-793.5 0,-793.5 0,-751.5 0,-751.5 0,-745.5 6,-739.5 12,-739.5"/>
<text text-anchor="middle" x="36" y="-768.3" font-family="Times,serif" font-size="14.00">Diagnosis</text>
<polyline fill="none" stroke="black" points="72,-739.5 72,-805.5 "/>
<text text-anchor="middle" x="81.75" y="-768.3" font-family="Times,serif" font-size="14.00"> </text>
<polyline fill="none" stroke="black" points="91.5,-739.5 91.5,-805.5 "/>
<text text-anchor="middle" x="146.16" y="-790.3" font-family="Times,serif" font-size="14.00">Vital status</text>
<polyline fill="none" stroke="black" points="91.5,-783.5 200.82,-783.5 "/>
<text text-anchor="middle" x="146.16" y="-768.3" font-family="Times,serif" font-size="14.00">Days to death</text>
<polyline fill="none" stroke="black" points="91.5,-761.5 200.82,-761.5 "/>
<text text-anchor="middle" x="146.16" y="-746.3" font-family="Times,serif" font-size="14.00">Age at diagnosis</text>
<polyline fill="none" stroke="black" points="200.82,-739.5 200.82,-805.5 "/>
<text text-anchor="middle" x="210.57" y="-768.3" font-family="Times,serif" font-size="14.00"> </text>
</g>
<!-- Case&#45;&gt;Diagnosis -->
<g id="edge13" class="edge">
<title>Case&#45;&gt;Diagnosis</title>
<path fill="none" stroke="black" d="M312.28,-881.94C267.39,-875.54 212.94,-862.91 169.61,-838 158.56,-831.65 148.39,-822.57 139.7,-813.21"/>
<polygon fill="black" stroke="black" points="142.3,-810.87 133.06,-805.7 137.06,-815.51 142.3,-810.87"/>
<text text-anchor="middle" x="209.43" y="-826.8" font-family="Times,serif" font-size="14.00">has_diagnosis</text>
</g>
<!-- Portion -->
<g id="node5" class="node">
<title>Portion</title>
<path fill="none" stroke="black" d="M550.3,-652.5C550.3,-652.5 712.02,-652.5 712.02,-652.5 718.02,-652.5 724.02,-658.5 724.02,-664.5 724.02,-664.5 724.02,-676.5 724.02,-676.5 724.02,-682.5 718.02,-688.5 712.02,-688.5 712.02,-688.5 550.3,-688.5 550.3,-688.5 544.3,-688.5 538.3,-682.5 538.3,-676.5 538.3,-676.5 538.3,-664.5 538.3,-664.5 538.3,-658.5 544.3,-652.5 550.3,-652.5"/>
<text text-anchor="middle" x="566.91" y="-666.3" font-family="Times,serif" font-size="14.00">Portion</text>
<polyline fill="none" stroke="black" points="595.53,-652.5 595.53,-688.5 "/>
<text text-anchor="middle" x="605.28" y="-666.3" font-family="Times,serif" font-size="14.00"> </text>
<polyline fill="none" stroke="black" points="615.03,-652.5 615.03,-688.5 "/>
<text text-anchor="middle" x="659.77" y="-666.3" font-family="Times,serif" font-size="14.00">Submitter ID</text>
<polyline fill="none" stroke="black" points="704.52,-652.5 704.52,-688.5 "/>
<text text-anchor="middle" x="714.27" y="-666.3" font-family="Times,serif" font-size="14.00"> </text>
</g>
<!-- Case&#45;&gt;Portion -->
<g id="edge7" class="edge">
<title>Case&#45;&gt;Portion</title>
<path fill="none" stroke="black" d="M484.36,-859.79C514.8,-846.74 547.74,-828.97 573.16,-806 609.47,-773.18 626.63,-767.06 643.16,-721 645.75,-713.79 645.21,-705.79 643.36,-698.36"/>
<polygon fill="black" stroke="black" points="646.64,-697.13 640.21,-688.72 639.99,-699.31 646.64,-697.13"/>
<text text-anchor="middle" x="669.21" y="-768.3" font-family="Times,serif" font-size="14.00">has_portion</text>
</g>
<!-- File -->
<g id="node6" class="node">
<title>File</title>
<path fill="none" stroke="black" d="M380.59,-535.5C380.59,-535.5 519.73,-535.5 519.73,-535.5 525.73,-535.5 531.73,-541.5 531.73,-547.5 531.73,-547.5 531.73,-589.5 531.73,-589.5 531.73,-595.5 525.73,-601.5 519.73,-601.5 519.73,-601.5 380.59,-601.5 380.59,-601.5 374.59,-601.5 368.59,-595.5 368.59,-589.5 368.59,-589.5 368.59,-547.5 368.59,-547.5 368.59,-541.5 374.59,-535.5 380.59,-535.5"/>
<text text-anchor="middle" x="387.48" y="-564.3" font-family="Times,serif" font-size="14.00">File</text>
<polyline fill="none" stroke="black" points="406.37,-535.5 406.37,-601.5 "/>
<text text-anchor="middle" x="416.12" y="-564.3" font-family="Times,serif" font-size="14.00"> </text>
<polyline fill="none" stroke="black" points="425.87,-535.5 425.87,-601.5 "/>
<text text-anchor="middle" x="469.05" y="-586.3" font-family="Times,serif" font-size="14.00">File type</text>
<polyline fill="none" stroke="black" points="425.87,-579.5 512.23,-579.5 "/>
<text text-anchor="middle" x="469.05" y="-564.3" font-family="Times,serif" font-size="14.00">Data format</text>
<polyline fill="none" stroke="black" points="425.87,-557.5 512.23,-557.5 "/>
<text text-anchor="middle" x="469.05" y="-542.3" font-family="Times,serif" font-size="14.00">Access level</text>
<polyline fill="none" stroke="black" points="512.23,-535.5 512.23,-601.5 "/>
<text text-anchor="middle" x="521.98" y="-564.3" font-family="Times,serif" font-size="14.00"> </text>
</g>
<!-- Case&#45;&gt;File -->
<g id="edge10" class="edge">
<title>Case&#45;&gt;File</title>
<path fill="none" stroke="black" d="M335.47,-856.28C328.06,-850.83 321.05,-844.72 315.16,-838 273.92,-790.94 247.07,-767.34 263.61,-707 275.49,-663.65 280.69,-648.85 315.16,-620 328.07,-609.19 343.52,-600.58 359.29,-593.75"/>
<polygon fill="black" stroke="black" points="360.67,-596.97 368.59,-589.93 358.01,-590.49 360.67,-596.97"/>
<text text-anchor="middle" x="285.93" y="-709.8" font-family="Times,serif" font-size="14.00">has_file</text>
</g>
<!-- Investigation -->
<g id="node7" class="node">
<title>Investigation</title>
<path fill="none" stroke="black" d="M609.36,-224.5C609.36,-224.5 732.96,-224.5 732.96,-224.5 738.96,-224.5 744.96,-230.5 744.96,-236.5 744.96,-236.5 744.96,-248.5 744.96,-248.5 744.96,-254.5 738.96,-260.5 732.96,-260.5 732.96,-260.5 609.36,-260.5 609.36,-260.5 603.36,-260.5 597.36,-254.5 597.36,-248.5 597.36,-248.5 597.36,-236.5 597.36,-236.5 597.36,-230.5 603.36,-224.5 609.36,-224.5"/>
<text text-anchor="middle" x="641.91" y="-238.3" font-family="Times,serif" font-size="14.00">Investigation</text>
<polyline fill="none" stroke="black" points="686.46,-224.5 686.46,-260.5 "/>
<text text-anchor="middle" x="696.21" y="-238.3" font-family="Times,serif" font-size="14.00"> </text>
<polyline fill="none" stroke="black" points="705.96,-224.5 705.96,-260.5 "/>
<text text-anchor="middle" x="715.71" y="-238.3" font-family="Times,serif" font-size="14.00"> </text>
<polyline fill="none" stroke="black" points="725.46,-224.5 725.46,-260.5 "/>
<text text-anchor="middle" x="735.21" y="-238.3" font-family="Times,serif" font-size="14.00"> </text>
</g>
<!-- Case&#45;&gt;Investigation -->
<g id="edge14" class="edge">
<title>Case&#45;&gt;Investigation</title>
<path fill="none" stroke="black" d="M484.09,-884.81C618.96,-876.64 865.16,-851.1 865.16,-773.5 865.16,-773.5 865.16,-773.5 865.16,-567.5 865.16,-439.08 751.59,-317.51 698.24,-267.48"/>
<polygon fill="black" stroke="black" points="700.55,-264.84 690.83,-260.62 695.79,-269.98 700.55,-264.84"/>
<text text-anchor="middle" x="914.15" y="-666.3" font-family="Times,serif" font-size="14.00">has_investigation</text>
</g>
<!-- Sample -->
<g id="node8" class="node">
<title>Sample</title>
<path fill="none" stroke="black" d="M389.92,-754.5C389.92,-754.5 552.4,-754.5 552.4,-754.5 558.4,-754.5 564.4,-760.5 564.4,-766.5 564.4,-766.5 564.4,-778.5 564.4,-778.5 564.4,-784.5 558.4,-790.5 552.4,-790.5 552.4,-790.5 389.92,-790.5 389.92,-790.5 383.92,-790.5 377.92,-784.5 377.92,-778.5 377.92,-778.5 377.92,-766.5 377.92,-766.5 377.92,-760.5 383.92,-754.5 389.92,-754.5"/>
<text text-anchor="middle" x="406.91" y="-768.3" font-family="Times,serif" font-size="14.00">Sample</text>
<polyline fill="none" stroke="black" points="435.91,-754.5 435.91,-790.5 "/>
<text text-anchor="middle" x="445.66" y="-768.3" font-family="Times,serif" font-size="14.00"> </text>
<polyline fill="none" stroke="black" points="455.41,-754.5 455.41,-790.5 "/>
<text text-anchor="middle" x="500.16" y="-768.3" font-family="Times,serif" font-size="14.00">Submitter ID</text>
<polyline fill="none" stroke="black" points="544.9,-754.5 544.9,-790.5 "/>
<text text-anchor="middle" x="554.65" y="-768.3" font-family="Times,serif" font-size="14.00"> </text>
</g>
<!-- Case&#45;&gt;Sample -->
<g id="edge4" class="edge">
<title>Case&#45;&gt;Sample</title>
<path fill="none" stroke="black" d="M434.83,-856.45C440.12,-850.68 445.12,-844.44 449.16,-838 456.3,-826.6 461.44,-812.6 464.94,-800.57"/>
<polygon fill="black" stroke="black" points="468.4,-801.17 467.61,-790.61 461.64,-799.36 468.4,-801.17"/>
<text text-anchor="middle" x="488.82" y="-826.8" font-family="Times,serif" font-size="14.00">has_sample</text>
</g>
<!-- Diagnosis&#45;&gt;Case -->
<g id="edge19" class="edge">
<title>Diagnosis&#45;&gt;Case</title>
<path fill="none" stroke="black" d="M95.14,-805.51C92.13,-816.88 91.86,-829.07 99.41,-838 125.08,-868.38 224.65,-880.49 301.87,-885.31"/>
<polygon fill="black" stroke="black" points="301.94,-888.82 312.13,-885.92 302.35,-881.83 301.94,-888.82"/>
<text text-anchor="middle" x="125.03" y="-826.8" font-family="Times,serif" font-size="14.00">has_case</text>
</g>
<!-- Protocol -->
<g id="node4" class="node">
<title>Protocol</title>
<path fill="none" stroke="black" d="M268.69,-0.5C268.69,-0.5 553.63,-0.5 553.63,-0.5 559.63,-0.5 565.63,-6.5 565.63,-12.5 565.63,-12.5 565.63,-472.5 565.63,-472.5 565.63,-478.5 559.63,-484.5 553.63,-484.5 553.63,-484.5 268.69,-484.5 268.69,-484.5 262.69,-484.5 256.69,-478.5 256.69,-472.5 256.69,-472.5 256.69,-12.5 256.69,-12.5 256.69,-6.5 262.69,-0.5 268.69,-0.5"/>
<text text-anchor="middle" x="288.41" y="-238.3" font-family="Times,serif" font-size="14.00">Protocol</text>
<polyline fill="none" stroke="black" points="320.13,-0.5 320.13,-484.5 "/>
<text text-anchor="middle" x="329.88" y="-238.3" font-family="Times,serif" font-size="14.00"> </text>
<polyline fill="none" stroke="black" points="339.63,-0.5 339.63,-484.5 "/>
<text text-anchor="middle" x="442.88" y="-469.3" font-family="Times,serif" font-size="14.00">Analytical Enrichment</text>
<polyline fill="none" stroke="black" points="339.63,-462.5 546.13,-462.5 "/>
<text text-anchor="middle" x="442.88" y="-447.3" font-family="Times,serif" font-size="14.00">Chromatography Particle Type</text>
<polyline fill="none" stroke="black" points="339.63,-440.5 546.13,-440.5 "/>
<text text-anchor="middle" x="442.88" y="-425.3" font-family="Times,serif" font-size="14.00">Analytical Starting Amount</text>
<polyline fill="none" stroke="black" points="339.63,-418.5 546.13,-418.5 "/>
<text text-anchor="middle" x="442.88" y="-403.3" font-family="Times,serif" font-size="14.00">Chromatography Inside Diameter</text>
<polyline fill="none" stroke="black" points="339.63,-396.5 546.13,-396.5 "/>
<text text-anchor="middle" x="442.88" y="-381.3" font-family="Times,serif" font-size="14.00">Chromatography Gradient Length</text>
<polyline fill="none" stroke="black" points="339.63,-374.5 546.13,-374.5 "/>
<text text-anchor="middle" x="442.88" y="-359.3" font-family="Times,serif" font-size="14.00">Chromatography Column Length</text>
<polyline fill="none" stroke="black" points="339.63,-352.5 546.13,-352.5 "/>
<text text-anchor="middle" x="442.88" y="-337.3" font-family="Times,serif" font-size="14.00">Spectrometry Precursors</text>
<polyline fill="none" stroke="black" points="339.63,-330.5 546.13,-330.5 "/>
<text text-anchor="middle" x="442.88" y="-315.3" font-family="Times,serif" font-size="14.00">Chromatography Particle Size</text>
<polyline fill="none" stroke="black" points="339.63,-308.5 546.13,-308.5 "/>
<text text-anchor="middle" x="442.88" y="-293.3" font-family="Times,serif" font-size="14.00">Analytical Fractions</text>
<polyline fill="none" stroke="black" points="339.63,-286.5 546.13,-286.5 "/>
<text text-anchor="middle" x="442.88" y="-271.3" font-family="Times,serif" font-size="14.00">Analytical Proteolysis</text>
<polyline fill="none" stroke="black" points="339.63,-264.5 546.13,-264.5 "/>
<text text-anchor="middle" x="442.88" y="-249.3" font-family="Times,serif" font-size="14.00">Spectrometry Instrument</text>
<polyline fill="none" stroke="black" points="339.63,-242.5 546.13,-242.5 "/>
<text text-anchor="middle" x="442.88" y="-227.3" font-family="Times,serif" font-size="14.00">MS2</text>
<polyline fill="none" stroke="black" points="339.63,-220.5 546.13,-220.5 "/>
<text text-anchor="middle" x="442.88" y="-205.3" font-family="Times,serif" font-size="14.00">Chromatography Column Type</text>
<polyline fill="none" stroke="black" points="339.63,-198.5 546.13,-198.5 "/>
<text text-anchor="middle" x="442.88" y="-183.3" font-family="Times,serif" font-size="14.00">MS1</text>
<polyline fill="none" stroke="black" points="339.63,-176.5 546.13,-176.5 "/>
<text text-anchor="middle" x="442.88" y="-161.3" font-family="Times,serif" font-size="14.00">Spectrometry Dissociation</text>
<polyline fill="none" stroke="black" points="339.63,-154.5 546.13,-154.5 "/>
<text text-anchor="middle" x="442.88" y="-139.3" font-family="Times,serif" font-size="14.00">Analytical Labelling</text>
<polyline fill="none" stroke="black" points="339.63,-132.5 546.13,-132.5 "/>
<text text-anchor="middle" x="442.88" y="-117.3" font-family="Times,serif" font-size="14.00">Spectrometry Type</text>
<polyline fill="none" stroke="black" points="339.63,-110.5 546.13,-110.5 "/>
<text text-anchor="middle" x="442.88" y="-95.3" font-family="Times,serif" font-size="14.00">Analytical Fractionation</text>
<polyline fill="none" stroke="black" points="339.63,-88.5 546.13,-88.5 "/>
<text text-anchor="middle" x="442.88" y="-73.3" font-family="Times,serif" font-size="14.00">Spectrometry Collision Energy</text>
<polyline fill="none" stroke="black" points="339.63,-66.5 546.13,-66.5 "/>
<text text-anchor="middle" x="442.88" y="-51.3" font-family="Times,serif" font-size="14.00">Analytical Alkylation</text>
<polyline fill="none" stroke="black" points="339.63,-44.5 546.13,-44.5 "/>
<text text-anchor="middle" x="442.88" y="-29.3" font-family="Times,serif" font-size="14.00">Chromatography Injected</text>
<polyline fill="none" stroke="black" points="339.63,-22.5 546.13,-22.5 "/>
<text text-anchor="middle" x="442.88" y="-7.3" font-family="Times,serif" font-size="14.00">Analytical Sample Type</text>
<polyline fill="none" stroke="black" points="546.13,-0.5 546.13,-484.5 "/>
<text text-anchor="middle" x="555.88" y="-238.3" font-family="Times,serif" font-size="14.00"> </text>
</g>
<!-- Protocol&#45;&gt;File -->
<g id="edge11" class="edge">
<title>Protocol&#45;&gt;File</title>
<path fill="none" stroke="black" d="M440.2,-484.73C441.98,-499.57 443.63,-513.23 445.04,-525"/>
<polygon fill="black" stroke="black" points="441.61,-525.74 446.28,-535.25 448.56,-524.9 441.61,-525.74"/>
<text text-anchor="middle" x="465.93" y="-505.8" font-family="Times,serif" font-size="14.00">has_file</text>
</g>
<!-- Portion&#45;&gt;Case -->
<g id="edge22" class="edge">
<title>Portion&#45;&gt;Case</title>
<path fill="none" stroke="black" d="M659.9,-688.53C676.81,-700.33 696.68,-717.72 706.16,-739 718.27,-766.2 724.29,-782.38 706.16,-806 680.3,-839.69 574.8,-862.63 494.41,-875.61"/>
<polygon fill="black" stroke="black" points="493.57,-872.2 484.24,-877.22 494.66,-879.11 493.57,-872.2"/>
<text text-anchor="middle" x="743.03" y="-768.3" font-family="Times,serif" font-size="14.00">has_case</text>
</g>
<!-- Portion&#45;&gt;File -->
<g id="edge8" class="edge">
<title>Portion&#45;&gt;File</title>
<path fill="none" stroke="black" d="M603.35,-652.35C582.08,-639.27 555.52,-622.99 550.16,-620 541.96,-615.44 533.3,-610.8 524.65,-606.28"/>
<polygon fill="black" stroke="black" points="526.14,-603.11 515.65,-601.62 522.92,-609.32 526.14,-603.11"/>
<text text-anchor="middle" x="593.93" y="-622.8" font-family="Times,serif" font-size="14.00">has_file</text>
</g>
<!-- Portion&#45;&gt;Investigation -->
<g id="edge17" class="edge">
<title>Portion&#45;&gt;Investigation</title>
<path fill="none" stroke="black" d="M632.78,-652.27C638.93,-586.71 660.93,-352.39 668.55,-271.33"/>
<polygon fill="black" stroke="black" points="672.07,-271.23 669.52,-260.94 665.1,-270.57 672.07,-271.23"/>
<text text-anchor="middle" x="693.15" y="-564.3" font-family="Times,serif" font-size="14.00">has_investigation</text>
</g>
<!-- Portion&#45;&gt;Sample -->
<g id="edge2" class="edge">
<title>Portion&#45;&gt;Sample</title>
<path fill="none" stroke="black" d="M538.08,-687.18C516.18,-692.53 496.86,-699.17 488.84,-707 478.98,-716.64 474.46,-731.21 472.45,-744.07"/>
<polygon fill="black" stroke="black" points="468.94,-743.99 471.29,-754.32 475.9,-744.78 468.94,-743.99"/>
<text text-anchor="middle" x="521.82" y="-709.8" font-family="Times,serif" font-size="14.00">has_sample</text>
</g>
<!-- File&#45;&gt;Case -->
<g id="edge21" class="edge">
<title>File&#45;&gt;Case</title>
<path fill="none" stroke="black" d="M422.59,-601.6C402.08,-627.92 376.04,-667.2 366.41,-707 356.05,-749.78 361.05,-762.74 369.16,-806 371.7,-819.56 376.09,-833.88 380.69,-846.72"/>
<polygon fill="black" stroke="black" points="377.46,-848.06 384.23,-856.21 384.02,-845.62 377.46,-848.06"/>
<text text-anchor="middle" x="392.03" y="-709.8" font-family="Times,serif" font-size="14.00">has_case</text>
</g>
<!-- File&#45;&gt;Protocol -->
<g id="edge12" class="edge">
<title>File&#45;&gt;Protocol</title>
<path fill="none" stroke="black" d="M382.04,-535.33C376.02,-530.01 370.74,-523.93 366.84,-517 362.73,-509.7 359.38,-502.13 356.72,-494.35"/>
<polygon fill="black" stroke="black" points="360.06,-493.32 353.79,-484.77 353.36,-495.36 360.06,-493.32"/>
<text text-anchor="middle" x="403.32" y="-505.8" font-family="Times,serif" font-size="14.00">has_protocol</text>
</g>
<!-- File&#45;&gt;Portion -->
<g id="edge6" class="edge">
<title>File&#45;&gt;Portion</title>
<path fill="none" stroke="black" d="M460.69,-601.83C465.99,-613.52 473.58,-625.84 484.06,-634 492.08,-640.25 508.7,-645.97 527.99,-650.9"/>
<polygon fill="black" stroke="black" points="527.42,-654.37 537.97,-653.33 529.08,-647.56 527.42,-654.37"/>
<text text-anchor="middle" x="517.21" y="-622.8" font-family="Times,serif" font-size="14.00">has_portion</text>
</g>
<!-- File&#45;&gt;Investigation -->
<g id="edge16" class="edge">
<title>File&#45;&gt;Investigation</title>
<path fill="none" stroke="black" d="M478.73,-535.47C490.35,-523.95 504.49,-511.68 519.17,-503 541.31,-489.91 555.39,-502.58 574.16,-485 637.3,-425.87 660.25,-320.11 667.81,-270.54"/>
<polygon fill="black" stroke="black" points="671.28,-270.97 669.24,-260.58 664.35,-269.98 671.28,-270.97"/>
<text text-anchor="middle" x="569.15" y="-505.8" font-family="Times,serif" font-size="14.00">has_investigation</text>
</g>
<!-- File&#45;&gt;Sample -->
<g id="edge3" class="edge">
<title>File&#45;&gt;Sample</title>
<path fill="none" stroke="black" d="M453.51,-601.78C457.61,-641.21 464.48,-707.21 468.32,-744.22"/>
<polygon fill="black" stroke="black" points="464.85,-744.69 469.37,-754.28 471.82,-743.97 464.85,-744.69"/>
<text text-anchor="middle" x="495.82" y="-666.3" font-family="Times,serif" font-size="14.00">has_sample</text>
</g>
<!-- Sample&#45;&gt;Case -->
<g id="edge20" class="edge">
<title>Sample&#45;&gt;Case</title>
<path fill="none" stroke="black" d="M430.56,-790.67C416.85,-798.67 403.09,-809.65 395.41,-824 391.8,-830.73 390.31,-838.45 390.07,-846.15"/>
<polygon fill="black" stroke="black" points="386.57,-846.3 390.38,-856.19 393.57,-846.08 386.57,-846.3"/>
<text text-anchor="middle" x="421.03" y="-826.8" font-family="Times,serif" font-size="14.00">has_case</text>
</g>
<!-- Sample&#45;&gt;Portion -->
<g id="edge5" class="edge">
<title>Sample&#45;&gt;Portion</title>
<path fill="none" stroke="black" d="M499.69,-754.38C515.75,-744.68 536.14,-732.27 554.16,-721 567.95,-712.37 583.03,-702.73 596.15,-694.26"/>
<polygon fill="black" stroke="black" points="598.39,-696.98 604.89,-688.61 594.59,-691.1 598.39,-696.98"/>
<text text-anchor="middle" x="609.21" y="-709.8" font-family="Times,serif" font-size="14.00">has_portion</text>
</g>
<!-- Sample&#45;&gt;File -->
<g id="edge9" class="edge">
<title>Sample&#45;&gt;File</title>
<path fill="none" stroke="black" d="M453.75,-754.37C439.31,-738.84 419.86,-714.55 411.61,-689 403.21,-663.02 412.26,-633.86 423.69,-610.85"/>
<polygon fill="black" stroke="black" points="426.94,-612.19 428.51,-601.71 420.75,-608.92 426.94,-612.19"/>
<text text-anchor="middle" x="433.93" y="-666.3" font-family="Times,serif" font-size="14.00">has_file</text>
</g>
<!-- Sample&#45;&gt;Investigation -->
<g id="edge15" class="edge">
<title>Sample&#45;&gt;Investigation</title>
<path fill="none" stroke="black" d="M519.74,-754.42C535.42,-749.17 552.94,-743.57 569.16,-739 642.5,-718.31 686.05,-748.9 733.16,-689 784.76,-623.38 706.92,-356.62 679.86,-270.47"/>
<polygon fill="black" stroke="black" points="683.18,-269.36 676.82,-260.88 676.51,-271.47 683.18,-269.36"/>
<text text-anchor="middle" x="800.15" y="-622.8" font-family="Times,serif" font-size="14.00">has_investigation</text>
</g>
</g>
</svg>
