<?xml version="1.0" encoding="UTF-8" standalone="no"?>
<!DOCTYPE svg PUBLIC "-//W3C//DTD SVG 1.1//EN"
 "http://www.w3.org/Graphics/SVG/1.1/DTD/svg11.dtd">
<!-- Generated by graphviz version 2.43.0 (0)
 -->
<!-- Title: Perl Pages: 1 -->
<svg width="1826pt" height="1885pt"
 viewBox="0.00 0.00 1826.37 1885.00" xmlns="http://www.w3.org/2000/svg" xmlns:xlink="http://www.w3.org/1999/xlink">
<g id="graph0" class="graph" transform="scale(1 1) rotate(0) translate(4 1881)">
<title>Perl</title>
<polygon fill="white" stroke="transparent" points="-4,4 -4,-1881 1822.37,-1881 1822.37,4 -4,4"/>
<!-- Project -->
<g id="node1" class="node">
<title>Project</title>
<path fill="none" stroke="black" d="M978.09,-1678.5C978.09,-1678.5 1178,-1678.5 1178,-1678.5 1184,-1678.5 1190,-1684.5 1190,-1690.5 1190,-1690.5 1190,-1864.5 1190,-1864.5 1190,-1870.5 1184,-1876.5 1178,-1876.5 1178,-1876.5 978.09,-1876.5 978.09,-1876.5 972.09,-1876.5 966.09,-1870.5 966.09,-1864.5 966.09,-1864.5 966.09,-1690.5 966.09,-1690.5 966.09,-1684.5 972.09,-1678.5 978.09,-1678.5"/>
<text text-anchor="middle" x="993.92" y="-1773.3" font-family="Times,serif" font-size="14.00">Project</text>
<polyline fill="none" stroke="black" points="1021.74,-1678.5 1021.74,-1876.5 "/>
<text text-anchor="middle" x="1031.49" y="-1773.3" font-family="Times,serif" font-size="14.00"> </text>
<polyline fill="none" stroke="black" points="1041.24,-1678.5 1041.24,-1876.5 "/>
<text text-anchor="middle" x="1105.87" y="-1861.3" font-family="Times,serif" font-size="14.00">Tumour type</text>
<polyline fill="none" stroke="black" points="1041.24,-1854.5 1170.5,-1854.5 "/>
<text text-anchor="middle" x="1105.87" y="-1839.3" font-family="Times,serif" font-size="14.00">Available data types</text>
<polyline fill="none" stroke="black" points="1041.24,-1832.5 1170.5,-1832.5 "/>
<text text-anchor="middle" x="1105.87" y="-1817.3" font-family="Times,serif" font-size="14.00">Primary Country</text>
<polyline fill="none" stroke="black" points="1041.24,-1810.5 1170.5,-1810.5 "/>
<text text-anchor="middle" x="1105.87" y="-1795.3" font-family="Times,serif" font-size="14.00">Pubmed Id</text>
<polyline fill="none" stroke="black" points="1041.24,-1788.5 1170.5,-1788.5 "/>
<text text-anchor="middle" x="1105.87" y="-1773.3" font-family="Times,serif" font-size="14.00">State</text>
<polyline fill="none" stroke="black" points="1041.24,-1766.5 1170.5,-1766.5 "/>
<text text-anchor="middle" x="1105.87" y="-1751.3" font-family="Times,serif" font-size="14.00">Project Name</text>
<polyline fill="none" stroke="black" points="1041.24,-1744.5 1170.5,-1744.5 "/>
<text text-anchor="middle" x="1105.87" y="-1729.3" font-family="Times,serif" font-size="14.00">Tumour subtype</text>
<polyline fill="none" stroke="black" points="1041.24,-1722.5 1170.5,-1722.5 "/>
<text text-anchor="middle" x="1105.87" y="-1707.3" font-family="Times,serif" font-size="14.00">Partner Country</text>
<polyline fill="none" stroke="black" points="1041.24,-1700.5 1170.5,-1700.5 "/>
<text text-anchor="middle" x="1105.87" y="-1685.3" font-family="Times,serif" font-size="14.00">Primary site</text>
<polyline fill="none" stroke="black" points="1170.5,-1678.5 1170.5,-1876.5 "/>
<text text-anchor="middle" x="1180.25" y="-1773.3" font-family="Times,serif" font-size="14.00"> </text>
</g>
<!-- Donor -->
<g id="node9" class="node">
<title>Donor</title>
<path fill="none" stroke="black" d="M951.9,-1121.5C951.9,-1121.5 1204.19,-1121.5 1204.19,-1121.5 1210.19,-1121.5 1216.19,-1127.5 1216.19,-1133.5 1216.19,-1133.5 1216.19,-1615.5 1216.19,-1615.5 1216.19,-1621.5 1210.19,-1627.5 1204.19,-1627.5 1204.19,-1627.5 951.9,-1627.5 951.9,-1627.5 945.9,-1627.5 939.9,-1621.5 939.9,-1615.5 939.9,-1615.5 939.9,-1133.5 939.9,-1133.5 939.9,-1127.5 945.9,-1121.5 951.9,-1121.5"/>
<text text-anchor="middle" x="965.78" y="-1370.3" font-family="Times,serif" font-size="14.00">Donor</text>
<polyline fill="none" stroke="black" points="991.67,-1121.5 991.67,-1627.5 "/>
<text text-anchor="middle" x="1001.42" y="-1370.3" font-family="Times,serif" font-size="14.00"> </text>
<polyline fill="none" stroke="black" points="1011.17,-1121.5 1011.17,-1627.5 "/>
<text text-anchor="middle" x="1103.93" y="-1612.3" font-family="Times,serif" font-size="14.00">Relapse Interval</text>
<polyline fill="none" stroke="black" points="1011.17,-1605.5 1196.69,-1605.5 "/>
<text text-anchor="middle" x="1103.93" y="-1590.3" font-family="Times,serif" font-size="14.00">Survival time</text>
<polyline fill="none" stroke="black" points="1011.17,-1583.5 1196.69,-1583.5 "/>
<text text-anchor="middle" x="1103.93" y="-1568.3" font-family="Times,serif" font-size="14.00">Interval of last followup</text>
<polyline fill="none" stroke="black" points="1011.17,-1561.5 1196.69,-1561.5 "/>
<text text-anchor="middle" x="1103.93" y="-1546.3" font-family="Times,serif" font-size="14.00">Cancer type prior malignancy</text>
<polyline fill="none" stroke="black" points="1011.17,-1539.5 1196.69,-1539.5 "/>
<text text-anchor="middle" x="1103.93" y="-1524.3" font-family="Times,serif" font-size="14.00">Available data types</text>
<polyline fill="none" stroke="black" points="1011.17,-1517.5 1196.69,-1517.5 "/>
<text text-anchor="middle" x="1103.93" y="-1502.3" font-family="Times,serif" font-size="14.00">History of first degree relative</text>
<polyline fill="none" stroke="black" points="1011.17,-1495.5 1196.69,-1495.5 "/>
<text text-anchor="middle" x="1103.93" y="-1480.3" font-family="Times,serif" font-size="14.00">Analysis type</text>
<polyline fill="none" stroke="black" points="1011.17,-1473.5 1196.69,-1473.5 "/>
<text text-anchor="middle" x="1103.93" y="-1458.3" font-family="Times,serif" font-size="14.00">Relapse Type</text>
<polyline fill="none" stroke="black" points="1011.17,-1451.5 1196.69,-1451.5 "/>
<text text-anchor="middle" x="1103.93" y="-1436.3" font-family="Times,serif" font-size="14.00">Study</text>
<polyline fill="none" stroke="black" points="1011.17,-1429.5 1196.69,-1429.5 "/>
<text text-anchor="middle" x="1103.93" y="-1414.3" font-family="Times,serif" font-size="14.00">Age at diagnosis</text>
<polyline fill="none" stroke="black" points="1011.17,-1407.5 1196.69,-1407.5 "/>
<text text-anchor="middle" x="1103.93" y="-1392.3" font-family="Times,serif" font-size="14.00">Tumour staging system</text>
<polyline fill="none" stroke="black" points="1011.17,-1385.5 1196.69,-1385.5 "/>
<text text-anchor="middle" x="1103.93" y="-1370.3" font-family="Times,serif" font-size="14.00">Tumour stage</text>
<polyline fill="none" stroke="black" points="1011.17,-1363.5 1196.69,-1363.5 "/>
<text text-anchor="middle" x="1103.93" y="-1348.3" font-family="Times,serif" font-size="14.00">Tumour stage supplemental</text>
<polyline fill="none" stroke="black" points="1011.17,-1341.5 1196.69,-1341.5 "/>
<text text-anchor="middle" x="1103.93" y="-1326.3" font-family="Times,serif" font-size="14.00">Age at last follow up</text>
<polyline fill="none" stroke="black" points="1011.17,-1319.5 1196.69,-1319.5 "/>
<text text-anchor="middle" x="1103.93" y="-1304.3" font-family="Times,serif" font-size="14.00">Gender</text>
<polyline fill="none" stroke="black" points="1011.17,-1297.5 1196.69,-1297.5 "/>
<text text-anchor="middle" x="1103.93" y="-1282.3" font-family="Times,serif" font-size="14.00">Submitted donor id</text>
<polyline fill="none" stroke="black" points="1011.17,-1275.5 1196.69,-1275.5 "/>
<text text-anchor="middle" x="1103.93" y="-1260.3" font-family="Times,serif" font-size="14.00">Primary site</text>
<polyline fill="none" stroke="black" points="1011.17,-1253.5 1196.69,-1253.5 "/>
<text text-anchor="middle" x="1103.93" y="-1238.3" font-family="Times,serif" font-size="14.00">Prior malignancy</text>
<polyline fill="none" stroke="black" points="1011.17,-1231.5 1196.69,-1231.5 "/>
<text text-anchor="middle" x="1103.93" y="-1216.3" font-family="Times,serif" font-size="14.00">State</text>
<polyline fill="none" stroke="black" points="1011.17,-1209.5 1196.69,-1209.5 "/>
<text text-anchor="middle" x="1103.93" y="-1194.3" font-family="Times,serif" font-size="14.00">Age at diagnosis group</text>
<polyline fill="none" stroke="black" points="1011.17,-1187.5 1196.69,-1187.5 "/>
<text text-anchor="middle" x="1103.93" y="-1172.3" font-family="Times,serif" font-size="14.00">ICD&#45;10 diagnostic code</text>
<polyline fill="none" stroke="black" points="1011.17,-1165.5 1196.69,-1165.5 "/>
<text text-anchor="middle" x="1103.93" y="-1150.3" font-family="Times,serif" font-size="14.00">Disease status at last followup</text>
<polyline fill="none" stroke="black" points="1011.17,-1143.5 1196.69,-1143.5 "/>
<text text-anchor="middle" x="1103.93" y="-1128.3" font-family="Times,serif" font-size="14.00">Age at enrollment</text>
<polyline fill="none" stroke="black" points="1196.69,-1121.5 1196.69,-1627.5 "/>
<text text-anchor="middle" x="1206.44" y="-1370.3" font-family="Times,serif" font-size="14.00"> </text>
</g>
<!-- Project&#45;&gt;Donor -->
<g id="edge12" class="edge">
<title>Project&#45;&gt;Donor</title>
<path fill="none" stroke="black" d="M1038.79,-1678.35C1037.19,-1672.2 1035.81,-1666.05 1034.72,-1660 1033.41,-1652.73 1032.4,-1645.35 1031.65,-1637.9"/>
<polygon fill="black" stroke="black" points="1035.12,-1637.38 1030.8,-1627.7 1028.15,-1637.96 1035.12,-1637.38"/>
<text text-anchor="middle" x="1064.21" y="-1648.8" font-family="Times,serif" font-size="14.00">has_donor</text>
</g>
<!-- Surgery -->
<g id="node2" class="node">
<title>Surgery</title>
<path fill="none" stroke="black" d="M12,-905.5C12,-905.5 206.09,-905.5 206.09,-905.5 212.09,-905.5 218.09,-911.5 218.09,-917.5 218.09,-917.5 218.09,-959.5 218.09,-959.5 218.09,-965.5 212.09,-971.5 206.09,-971.5 206.09,-971.5 12,-971.5 12,-971.5 6,-971.5 0,-965.5 0,-959.5 0,-959.5 0,-917.5 0,-917.5 0,-911.5 6,-905.5 12,-905.5"/>
<text text-anchor="middle" x="30.04" y="-934.3" font-family="Times,serif" font-size="14.00">Surgery</text>
<polyline fill="none" stroke="black" points="60.08,-905.5 60.08,-971.5 "/>
<text text-anchor="middle" x="69.83" y="-934.3" font-family="Times,serif" font-size="14.00"> </text>
<polyline fill="none" stroke="black" points="79.58,-905.5 79.58,-971.5 "/>
<text text-anchor="middle" x="139.08" y="-956.3" font-family="Times,serif" font-size="14.00">Procedure site</text>
<polyline fill="none" stroke="black" points="79.58,-949.5 198.59,-949.5 "/>
<text text-anchor="middle" x="139.08" y="-934.3" font-family="Times,serif" font-size="14.00">Procedure type</text>
<polyline fill="none" stroke="black" points="79.58,-927.5 198.59,-927.5 "/>
<text text-anchor="middle" x="139.08" y="-912.3" font-family="Times,serif" font-size="14.00">Procedure interval</text>
<polyline fill="none" stroke="black" points="198.59,-905.5 198.59,-971.5 "/>
<text text-anchor="middle" x="208.34" y="-934.3" font-family="Times,serif" font-size="14.00"> </text>
</g>
<!-- Surgery&#45;&gt;Donor -->
<g id="edge11" class="edge">
<title>Surgery&#45;&gt;Donor</title>
<path fill="none" stroke="black" d="M130.59,-971.54C151.95,-1001.08 187.17,-1044.27 227.04,-1071 448.67,-1219.55 751.65,-1304.27 929.92,-1344.38"/>
<polygon fill="black" stroke="black" points="929.37,-1347.84 939.89,-1346.61 930.89,-1341.01 929.37,-1347.84"/>
<text text-anchor="middle" x="297.21" y="-1091.8" font-family="Times,serif" font-size="14.00">has_donor</text>
</g>
<!-- Exposure -->
<g id="node3" class="node">
<title>Exposure</title>
<path fill="none" stroke="black" d="M247.7,-872.5C247.7,-872.5 548.39,-872.5 548.39,-872.5 554.39,-872.5 560.39,-878.5 560.39,-884.5 560.39,-884.5 560.39,-992.5 560.39,-992.5 560.39,-998.5 554.39,-1004.5 548.39,-1004.5 548.39,-1004.5 247.7,-1004.5 247.7,-1004.5 241.7,-1004.5 235.7,-998.5 235.7,-992.5 235.7,-992.5 235.7,-884.5 235.7,-884.5 235.7,-878.5 241.7,-872.5 247.7,-872.5"/>
<text text-anchor="middle" x="270.14" y="-934.3" font-family="Times,serif" font-size="14.00">Exposure</text>
<polyline fill="none" stroke="black" points="304.58,-872.5 304.58,-1004.5 "/>
<text text-anchor="middle" x="314.33" y="-934.3" font-family="Times,serif" font-size="14.00"> </text>
<polyline fill="none" stroke="black" points="324.08,-872.5 324.08,-1004.5 "/>
<text text-anchor="middle" x="432.48" y="-989.3" font-family="Times,serif" font-size="14.00">Exposure Intensity</text>
<polyline fill="none" stroke="black" points="324.08,-982.5 540.89,-982.5 "/>
<text text-anchor="middle" x="432.48" y="-967.3" font-family="Times,serif" font-size="14.00">Tobacco Smoking History Indicator</text>
<polyline fill="none" stroke="black" points="324.08,-960.5 540.89,-960.5 "/>
<text text-anchor="middle" x="432.48" y="-945.3" font-family="Times,serif" font-size="14.00">Tobacco Smoking Intensity</text>
<polyline fill="none" stroke="black" points="324.08,-938.5 540.89,-938.5 "/>
<text text-anchor="middle" x="432.48" y="-923.3" font-family="Times,serif" font-size="14.00">Exposure Type</text>
<polyline fill="none" stroke="black" points="324.08,-916.5 540.89,-916.5 "/>
<text text-anchor="middle" x="432.48" y="-901.3" font-family="Times,serif" font-size="14.00">Alcohol history</text>
<polyline fill="none" stroke="black" points="324.08,-894.5 540.89,-894.5 "/>
<text text-anchor="middle" x="432.48" y="-879.3" font-family="Times,serif" font-size="14.00">Alcohol History Intensity</text>
<polyline fill="none" stroke="black" points="540.89,-872.5 540.89,-1004.5 "/>
<text text-anchor="middle" x="550.64" y="-934.3" font-family="Times,serif" font-size="14.00"> </text>
</g>
<!-- Exposure&#45;&gt;Donor -->
<g id="edge10" class="edge">
<title>Exposure&#45;&gt;Donor</title>
<path fill="none" stroke="black" d="M467.16,-1004.8C496.52,-1029.14 532.4,-1054.78 569.04,-1071 610.34,-1089.28 627.33,-1071.71 669.04,-1089 763.29,-1128.06 857.52,-1191.53 931.73,-1248.61"/>
<polygon fill="black" stroke="black" points="929.72,-1251.48 939.77,-1254.83 934,-1245.94 929.72,-1251.48"/>
<text text-anchor="middle" x="723.21" y="-1091.8" font-family="Times,serif" font-size="14.00">has_donor</text>
</g>
<!-- Therapy -->
<g id="node4" class="node">
<title>Therapy</title>
<path fill="none" stroke="black" d="M590.34,-806.5C590.34,-806.5 871.75,-806.5 871.75,-806.5 877.75,-806.5 883.75,-812.5 883.75,-818.5 883.75,-818.5 883.75,-1058.5 883.75,-1058.5 883.75,-1064.5 877.75,-1070.5 871.75,-1070.5 871.75,-1070.5 590.34,-1070.5 590.34,-1070.5 584.34,-1070.5 578.34,-1064.5 578.34,-1058.5 578.34,-1058.5 578.34,-818.5 578.34,-818.5 578.34,-812.5 584.34,-806.5 590.34,-806.5"/>
<text text-anchor="middle" x="609.66" y="-934.3" font-family="Times,serif" font-size="14.00">Therapy</text>
<polyline fill="none" stroke="black" points="640.98,-806.5 640.98,-1070.5 "/>
<text text-anchor="middle" x="650.73" y="-934.3" font-family="Times,serif" font-size="14.00"> </text>
<polyline fill="none" stroke="black" points="660.48,-806.5 660.48,-1070.5 "/>
<text text-anchor="middle" x="762.37" y="-1055.3" font-family="Times,serif" font-size="14.00">Second therapy type</text>
<polyline fill="none" stroke="black" points="660.48,-1048.5 864.25,-1048.5 "/>
<text text-anchor="middle" x="762.37" y="-1033.3" font-family="Times,serif" font-size="14.00">First therapy duration</text>
<polyline fill="none" stroke="black" points="660.48,-1026.5 864.25,-1026.5 "/>
<text text-anchor="middle" x="762.37" y="-1011.3" font-family="Times,serif" font-size="14.00">Second therapy response</text>
<polyline fill="none" stroke="black" points="660.48,-1004.5 864.25,-1004.5 "/>
<text text-anchor="middle" x="762.37" y="-989.3" font-family="Times,serif" font-size="14.00">First therapy therapeutic intent</text>
<polyline fill="none" stroke="black" points="660.48,-982.5 864.25,-982.5 "/>
<text text-anchor="middle" x="762.37" y="-967.3" font-family="Times,serif" font-size="14.00">Second therapy duration</text>
<polyline fill="none" stroke="black" points="660.48,-960.5 864.25,-960.5 "/>
<text text-anchor="middle" x="762.37" y="-945.3" font-family="Times,serif" font-size="14.00">Other therapy response</text>
<polyline fill="none" stroke="black" points="660.48,-938.5 864.25,-938.5 "/>
<text text-anchor="middle" x="762.37" y="-923.3" font-family="Times,serif" font-size="14.00">Second therapy therapeutic intent</text>
<polyline fill="none" stroke="black" points="660.48,-916.5 864.25,-916.5 "/>
<text text-anchor="middle" x="762.37" y="-901.3" font-family="Times,serif" font-size="14.00">First therapy response</text>
<polyline fill="none" stroke="black" points="660.48,-894.5 864.25,-894.5 "/>
<text text-anchor="middle" x="762.37" y="-879.3" font-family="Times,serif" font-size="14.00">Second therapy start interval</text>
<polyline fill="none" stroke="black" points="660.48,-872.5 864.25,-872.5 "/>
<text text-anchor="middle" x="762.37" y="-857.3" font-family="Times,serif" font-size="14.00">Other therapy</text>
<polyline fill="none" stroke="black" points="660.48,-850.5 864.25,-850.5 "/>
<text text-anchor="middle" x="762.37" y="-835.3" font-family="Times,serif" font-size="14.00">First therapy start interval</text>
<polyline fill="none" stroke="black" points="660.48,-828.5 864.25,-828.5 "/>
<text text-anchor="middle" x="762.37" y="-813.3" font-family="Times,serif" font-size="14.00">First therapy type</text>
<polyline fill="none" stroke="black" points="864.25,-806.5 864.25,-1070.5 "/>
<text text-anchor="middle" x="874" y="-934.3" font-family="Times,serif" font-size="14.00"> </text>
</g>
<!-- Therapy&#45;&gt;Donor -->
<g id="edge15" class="edge">
<title>Therapy&#45;&gt;Donor</title>
<path fill="none" stroke="black" d="M883.95,-1064.88C886.99,-1066.96 890.02,-1069 893.04,-1071 907.31,-1080.43 914.95,-1076.92 927.04,-1089 934.77,-1096.72 942.19,-1104.91 949.32,-1113.46"/>
<polygon fill="black" stroke="black" points="946.75,-1115.86 955.78,-1121.42 952.19,-1111.45 946.75,-1115.86"/>
<text text-anchor="middle" x="968.21" y="-1091.8" font-family="Times,serif" font-size="14.00">has_donor</text>
</g>
<!-- Family -->
<g id="node5" class="node">
<title>Family</title>
<path fill="none" stroke="black" d="M913.67,-861.5C913.67,-861.5 1164.42,-861.5 1164.42,-861.5 1170.42,-861.5 1176.42,-867.5 1176.42,-873.5 1176.42,-873.5 1176.42,-1003.5 1176.42,-1003.5 1176.42,-1009.5 1170.42,-1015.5 1164.42,-1015.5 1164.42,-1015.5 913.67,-1015.5 913.67,-1015.5 907.67,-1015.5 901.67,-1009.5 901.67,-1003.5 901.67,-1003.5 901.67,-873.5 901.67,-873.5 901.67,-867.5 907.67,-861.5 913.67,-861.5"/>
<text text-anchor="middle" x="929.5" y="-934.3" font-family="Times,serif" font-size="14.00">Family</text>
<polyline fill="none" stroke="black" points="957.34,-861.5 957.34,-1015.5 "/>
<text text-anchor="middle" x="967.09" y="-934.3" font-family="Times,serif" font-size="14.00"> </text>
<polyline fill="none" stroke="black" points="976.84,-861.5 976.84,-1015.5 "/>
<text text-anchor="middle" x="1066.88" y="-1000.3" font-family="Times,serif" font-size="14.00">Relationship Age</text>
<polyline fill="none" stroke="black" points="976.84,-993.5 1156.92,-993.5 "/>
<text text-anchor="middle" x="1066.88" y="-978.3" font-family="Times,serif" font-size="14.00">Relationship Disease</text>
<polyline fill="none" stroke="black" points="976.84,-971.5 1156.92,-971.5 "/>
<text text-anchor="middle" x="1066.88" y="-956.3" font-family="Times,serif" font-size="14.00">Relationship type</text>
<polyline fill="none" stroke="black" points="976.84,-949.5 1156.92,-949.5 "/>
<text text-anchor="middle" x="1066.88" y="-934.3" font-family="Times,serif" font-size="14.00">Relationship Disease ICD&#45;10</text>
<polyline fill="none" stroke="black" points="976.84,-927.5 1156.92,-927.5 "/>
<text text-anchor="middle" x="1066.88" y="-912.3" font-family="Times,serif" font-size="14.00">Relative with cancer history</text>
<polyline fill="none" stroke="black" points="976.84,-905.5 1156.92,-905.5 "/>
<text text-anchor="middle" x="1066.88" y="-890.3" font-family="Times,serif" font-size="14.00">Relationship sex</text>
<polyline fill="none" stroke="black" points="976.84,-883.5 1156.92,-883.5 "/>
<text text-anchor="middle" x="1066.88" y="-868.3" font-family="Times,serif" font-size="14.00">Other relationship type</text>
<polyline fill="none" stroke="black" points="1156.92,-861.5 1156.92,-1015.5 "/>
<text text-anchor="middle" x="1166.67" y="-934.3" font-family="Times,serif" font-size="14.00"> </text>
</g>
<!-- Family&#45;&gt;Donor -->
<g id="edge16" class="edge">
<title>Family&#45;&gt;Donor</title>
<path fill="none" stroke="black" d="M1076.15,-1015.77C1085.54,-1038.76 1094.3,-1064.42 1099.04,-1089 1100.47,-1096.35 1101.64,-1103.83 1102.61,-1111.39"/>
<polygon fill="black" stroke="black" points="1099.13,-1111.84 1103.75,-1121.38 1106.09,-1111.05 1099.13,-1111.84"/>
<text text-anchor="middle" x="1130.21" y="-1091.8" font-family="Times,serif" font-size="14.00">has_donor</text>
</g>
<!-- File -->
<g id="node6" class="node">
<title>File</title>
<path fill="none" stroke="black" d="M1401.04,-557.5C1401.04,-557.5 1593.05,-557.5 1593.05,-557.5 1599.05,-557.5 1605.05,-563.5 1605.05,-569.5 1605.05,-569.5 1605.05,-743.5 1605.05,-743.5 1605.05,-749.5 1599.05,-755.5 1593.05,-755.5 1593.05,-755.5 1401.04,-755.5 1401.04,-755.5 1395.04,-755.5 1389.04,-749.5 1389.04,-743.5 1389.04,-743.5 1389.04,-569.5 1389.04,-569.5 1389.04,-563.5 1395.04,-557.5 1401.04,-557.5"/>
<text text-anchor="middle" x="1407.93" y="-652.3" font-family="Times,serif" font-size="14.00">File</text>
<polyline fill="none" stroke="black" points="1426.82,-557.5 1426.82,-755.5 "/>
<text text-anchor="middle" x="1436.57" y="-652.3" font-family="Times,serif" font-size="14.00"> </text>
<polyline fill="none" stroke="black" points="1446.32,-557.5 1446.32,-755.5 "/>
<text text-anchor="middle" x="1515.93" y="-740.3" font-family="Times,serif" font-size="14.00">Analysis software</text>
<polyline fill="none" stroke="black" points="1446.32,-733.5 1585.55,-733.5 "/>
<text text-anchor="middle" x="1515.93" y="-718.3" font-family="Times,serif" font-size="14.00">Analysis type</text>
<polyline fill="none" stroke="black" points="1446.32,-711.5 1585.55,-711.5 "/>
<text text-anchor="middle" x="1515.93" y="-696.3" font-family="Times,serif" font-size="14.00">Data format</text>
<polyline fill="none" stroke="black" points="1446.32,-689.5 1585.55,-689.5 "/>
<text text-anchor="middle" x="1515.93" y="-674.3" font-family="Times,serif" font-size="14.00">Study</text>
<polyline fill="none" stroke="black" points="1446.32,-667.5 1585.55,-667.5 "/>
<text text-anchor="middle" x="1515.93" y="-652.3" font-family="Times,serif" font-size="14.00">File size</text>
<polyline fill="none" stroke="black" points="1446.32,-645.5 1585.55,-645.5 "/>
<text text-anchor="middle" x="1515.93" y="-630.3" font-family="Times,serif" font-size="14.00">Data type</text>
<polyline fill="none" stroke="black" points="1446.32,-623.5 1585.55,-623.5 "/>
<text text-anchor="middle" x="1515.93" y="-608.3" font-family="Times,serif" font-size="14.00">Experimental strategy</text>
<polyline fill="none" stroke="black" points="1446.32,-601.5 1585.55,-601.5 "/>
<text text-anchor="middle" x="1515.93" y="-586.3" font-family="Times,serif" font-size="14.00">Access level</text>
<polyline fill="none" stroke="black" points="1446.32,-579.5 1585.55,-579.5 "/>
<text text-anchor="middle" x="1515.93" y="-564.3" font-family="Times,serif" font-size="14.00">Genome build</text>
<polyline fill="none" stroke="black" points="1585.55,-557.5 1585.55,-755.5 "/>
<text text-anchor="middle" x="1595.3" y="-652.3" font-family="Times,serif" font-size="14.00"> </text>
</g>
<!-- Specimen -->
<g id="node7" class="node">
<title>Specimen</title>
<path fill="none" stroke="black" d="M1353.91,-0.5C1353.91,-0.5 1634.18,-0.5 1634.18,-0.5 1640.18,-0.5 1646.18,-6.5 1646.18,-12.5 1646.18,-12.5 1646.18,-494.5 1646.18,-494.5 1646.18,-500.5 1640.18,-506.5 1634.18,-506.5 1634.18,-506.5 1353.91,-506.5 1353.91,-506.5 1347.91,-506.5 1341.91,-500.5 1341.91,-494.5 1341.91,-494.5 1341.91,-12.5 1341.91,-12.5 1341.91,-6.5 1347.91,-0.5 1353.91,-0.5"/>
<text text-anchor="middle" x="1377.51" y="-249.3" font-family="Times,serif" font-size="14.00">Specimen</text>
<polyline fill="none" stroke="black" points="1413.12,-0.5 1413.12,-506.5 "/>
<text text-anchor="middle" x="1422.87" y="-249.3" font-family="Times,serif" font-size="14.00"> </text>
<polyline fill="none" stroke="black" points="1432.62,-0.5 1432.62,-506.5 "/>
<text text-anchor="middle" x="1529.65" y="-491.3" font-family="Times,serif" font-size="14.00">Specimen storage other</text>
<polyline fill="none" stroke="black" points="1432.62,-484.5 1626.68,-484.5 "/>
<text text-anchor="middle" x="1529.65" y="-469.3" font-family="Times,serif" font-size="14.00">Tumour stage supplemental</text>
<polyline fill="none" stroke="black" points="1432.62,-462.5 1626.68,-462.5 "/>
<text text-anchor="middle" x="1529.65" y="-447.3" font-family="Times,serif" font-size="14.00">Specimen interval</text>
<polyline fill="none" stroke="black" points="1432.62,-440.5 1626.68,-440.5 "/>
<text text-anchor="middle" x="1529.65" y="-425.3" font-family="Times,serif" font-size="14.00">Tumour histological type</text>
<polyline fill="none" stroke="black" points="1432.62,-418.5 1626.68,-418.5 "/>
<text text-anchor="middle" x="1529.65" y="-403.3" font-family="Times,serif" font-size="14.00">Specimen type</text>
<polyline fill="none" stroke="black" points="1432.62,-396.5 1626.68,-396.5 "/>
<text text-anchor="middle" x="1529.65" y="-381.3" font-family="Times,serif" font-size="14.00">Specimen type other</text>
<polyline fill="none" stroke="black" points="1432.62,-374.5 1626.68,-374.5 "/>
<text text-anchor="middle" x="1529.65" y="-359.3" font-family="Times,serif" font-size="14.00">Specimen Biobank ID</text>
<polyline fill="none" stroke="black" points="1432.62,-352.5 1626.68,-352.5 "/>
<text text-anchor="middle" x="1529.65" y="-337.3" font-family="Times,serif" font-size="14.00">Submitted specimen id</text>
<polyline fill="none" stroke="black" points="1432.62,-330.5 1626.68,-330.5 "/>
<text text-anchor="middle" x="1529.65" y="-315.3" font-family="Times,serif" font-size="14.00">Tumour confirmed</text>
<polyline fill="none" stroke="black" points="1432.62,-308.5 1626.68,-308.5 "/>
<text text-anchor="middle" x="1529.65" y="-293.3" font-family="Times,serif" font-size="14.00">Level of cellularity</text>
<polyline fill="none" stroke="black" points="1432.62,-286.5 1626.68,-286.5 "/>
<text text-anchor="middle" x="1529.65" y="-271.3" font-family="Times,serif" font-size="14.00">Specimen Biobank</text>
<polyline fill="none" stroke="black" points="1432.62,-264.5 1626.68,-264.5 "/>
<text text-anchor="middle" x="1529.65" y="-249.3" font-family="Times,serif" font-size="14.00">Treatment type other</text>
<polyline fill="none" stroke="black" points="1432.62,-242.5 1626.68,-242.5 "/>
<text text-anchor="middle" x="1529.65" y="-227.3" font-family="Times,serif" font-size="14.00">Specimen storage</text>
<polyline fill="none" stroke="black" points="1432.62,-220.5 1626.68,-220.5 "/>
<text text-anchor="middle" x="1529.65" y="-205.3" font-family="Times,serif" font-size="14.00">Tumour grade</text>
<polyline fill="none" stroke="black" points="1432.62,-198.5 1626.68,-198.5 "/>
<text text-anchor="middle" x="1529.65" y="-183.3" font-family="Times,serif" font-size="14.00">Tumour stage</text>
<polyline fill="none" stroke="black" points="1432.62,-176.5 1626.68,-176.5 "/>
<text text-anchor="middle" x="1529.65" y="-161.3" font-family="Times,serif" font-size="14.00">Percentage of cellularity</text>
<polyline fill="none" stroke="black" points="1432.62,-154.5 1626.68,-154.5 "/>
<text text-anchor="middle" x="1529.65" y="-139.3" font-family="Times,serif" font-size="14.00">Tumour staging system</text>
<polyline fill="none" stroke="black" points="1432.62,-132.5 1626.68,-132.5 "/>
<text text-anchor="middle" x="1529.65" y="-117.3" font-family="Times,serif" font-size="14.00">Tumour grading system</text>
<polyline fill="none" stroke="black" points="1432.62,-110.5 1626.68,-110.5 "/>
<text text-anchor="middle" x="1529.65" y="-95.3" font-family="Times,serif" font-size="14.00">Specimen processing</text>
<polyline fill="none" stroke="black" points="1432.62,-88.5 1626.68,-88.5 "/>
<text text-anchor="middle" x="1529.65" y="-73.3" font-family="Times,serif" font-size="14.00">Digital image of stained section</text>
<polyline fill="none" stroke="black" points="1432.62,-66.5 1626.68,-66.5 "/>
<text text-anchor="middle" x="1529.65" y="-51.3" font-family="Times,serif" font-size="14.00">Specimen available</text>
<polyline fill="none" stroke="black" points="1432.62,-44.5 1626.68,-44.5 "/>
<text text-anchor="middle" x="1529.65" y="-29.3" font-family="Times,serif" font-size="14.00">Specimen processing other</text>
<polyline fill="none" stroke="black" points="1432.62,-22.5 1626.68,-22.5 "/>
<text text-anchor="middle" x="1529.65" y="-7.3" font-family="Times,serif" font-size="14.00">Therapy type</text>
<polyline fill="none" stroke="black" points="1626.68,-0.5 1626.68,-506.5 "/>
<text text-anchor="middle" x="1636.43" y="-249.3" font-family="Times,serif" font-size="14.00"> </text>
</g>
<!-- File&#45;&gt;Specimen -->
<g id="edge22" class="edge">
<title>File&#45;&gt;Specimen</title>
<path fill="none" stroke="black" d="M1445.75,-557.47C1443.7,-551.32 1441.92,-545.13 1440.51,-539 1438.85,-531.76 1437.56,-524.41 1436.6,-516.98"/>
<polygon fill="black" stroke="black" points="1440.05,-516.37 1435.49,-506.81 1433.09,-517.13 1440.05,-516.37"/>
<text text-anchor="middle" x="1480.31" y="-527.8" font-family="Times,serif" font-size="14.00">has_specimen</text>
</g>
<!-- Sample -->
<g id="node8" class="node">
<title>Sample</title>
<path fill="none" stroke="black" d="M1206.02,-883.5C1206.02,-883.5 1438.07,-883.5 1438.07,-883.5 1444.07,-883.5 1450.07,-889.5 1450.07,-895.5 1450.07,-895.5 1450.07,-981.5 1450.07,-981.5 1450.07,-987.5 1444.07,-993.5 1438.07,-993.5 1438.07,-993.5 1206.02,-993.5 1206.02,-993.5 1200.02,-993.5 1194.02,-987.5 1194.02,-981.5 1194.02,-981.5 1194.02,-895.5 1194.02,-895.5 1194.02,-889.5 1200.02,-883.5 1206.02,-883.5"/>
<text text-anchor="middle" x="1223.02" y="-934.3" font-family="Times,serif" font-size="14.00">Sample</text>
<polyline fill="none" stroke="black" points="1252.01,-883.5 1252.01,-993.5 "/>
<text text-anchor="middle" x="1261.76" y="-934.3" font-family="Times,serif" font-size="14.00"> </text>
<polyline fill="none" stroke="black" points="1271.51,-883.5 1271.51,-993.5 "/>
<text text-anchor="middle" x="1351.04" y="-978.3" font-family="Times,serif" font-size="14.00">Study</text>
<polyline fill="none" stroke="black" points="1271.51,-971.5 1430.57,-971.5 "/>
<text text-anchor="middle" x="1351.04" y="-956.3" font-family="Times,serif" font-size="14.00">Level of cellularity</text>
<polyline fill="none" stroke="black" points="1271.51,-949.5 1430.57,-949.5 "/>
<text text-anchor="middle" x="1351.04" y="-934.3" font-family="Times,serif" font-size="14.00">Submitted sample id</text>
<polyline fill="none" stroke="black" points="1271.51,-927.5 1430.57,-927.5 "/>
<text text-anchor="middle" x="1351.04" y="-912.3" font-family="Times,serif" font-size="14.00">Analyzed sample interval</text>
<polyline fill="none" stroke="black" points="1271.51,-905.5 1430.57,-905.5 "/>
<text text-anchor="middle" x="1351.04" y="-890.3" font-family="Times,serif" font-size="14.00">Percentage of cellularity</text>
<polyline fill="none" stroke="black" points="1430.57,-883.5 1430.57,-993.5 "/>
<text text-anchor="middle" x="1440.32" y="-934.3" font-family="Times,serif" font-size="14.00"> </text>
</g>
<!-- File&#45;&gt;Sample -->
<g id="edge4" class="edge">
<title>File&#45;&gt;Sample</title>
<path fill="none" stroke="black" d="M1418.91,-755.76C1414.68,-761.85 1410.59,-767.96 1406.73,-774 1386.37,-805.86 1366.75,-843.17 1351.53,-874.11"/>
<polygon fill="black" stroke="black" points="1348.19,-872.97 1346.95,-883.49 1354.48,-876.04 1348.19,-872.97"/>
<text text-anchor="middle" x="1439.7" y="-776.8" font-family="Times,serif" font-size="14.00">has_sample</text>
</g>
<!-- File&#45;&gt;Donor -->
<g id="edge17" class="edge">
<title>File&#45;&gt;Donor</title>
<path fill="none" stroke="black" d="M1538.77,-755.56C1569.35,-843.45 1597.14,-973.22 1544.04,-1071 1477.01,-1194.44 1335.44,-1275.33 1225.83,-1322.13"/>
<polygon fill="black" stroke="black" points="1224.18,-1319.03 1216.33,-1326.14 1226.9,-1325.48 1224.18,-1319.03"/>
<text text-anchor="middle" x="1603.21" y="-934.3" font-family="Times,serif" font-size="14.00">has_donor</text>
</g>
<!-- Specimen&#45;&gt;File -->
<g id="edge7" class="edge">
<title>Specimen&#45;&gt;File</title>
<path fill="none" stroke="black" d="M1525.41,-506.61C1524.98,-517.56 1524.21,-528.39 1523.04,-539 1522.75,-541.71 1522.41,-544.44 1522.04,-547.2"/>
<polygon fill="black" stroke="black" points="1518.56,-546.83 1520.57,-557.24 1525.48,-547.85 1518.56,-546.83"/>
<text text-anchor="middle" x="1545.82" y="-527.8" font-family="Times,serif" font-size="14.00">has_file</text>
</g>
<!-- Specimen&#45;&gt;Sample -->
<g id="edge3" class="edge">
<title>Specimen&#45;&gt;Sample</title>
<path fill="none" stroke="black" d="M1341.83,-483.4C1330.89,-507.51 1321.51,-532.27 1314.73,-557 1285.14,-664.94 1297.91,-796.63 1309.94,-873.38"/>
<polygon fill="black" stroke="black" points="1306.5,-874.06 1311.55,-883.38 1313.42,-872.95 1306.5,-874.06"/>
<text text-anchor="middle" x="1347.7" y="-652.3" font-family="Times,serif" font-size="14.00">has_sample</text>
</g>
<!-- Specimen&#45;&gt;Donor -->
<g id="edge14" class="edge">
<title>Specimen&#45;&gt;Donor</title>
<path fill="none" stroke="black" d="M1646.24,-483.57C1653.35,-497.37 1660.02,-511.24 1666.04,-525 1769.09,-760.32 1826.19,-902.14 1666.04,-1103 1556.62,-1240.25 1361.79,-1310.72 1226.53,-1344.8"/>
<polygon fill="black" stroke="black" points="1225.35,-1341.49 1216.49,-1347.3 1227.04,-1348.28 1225.35,-1341.49"/>
<text text-anchor="middle" x="1789.21" y="-776.8" font-family="Times,serif" font-size="14.00">has_donor</text>
</g>
<!-- Sample&#45;&gt;File -->
<g id="edge8" class="edge">
<title>Sample&#45;&gt;File</title>
<path fill="none" stroke="black" d="M1322.06,-883.21C1324.33,-849.59 1331.5,-806.74 1351.49,-774 1358.36,-762.76 1364.68,-764.14 1375.04,-756 1376.87,-754.57 1378.71,-753.12 1380.56,-751.66"/>
<polygon fill="black" stroke="black" points="1383.06,-754.14 1388.74,-745.19 1378.72,-748.65 1383.06,-754.14"/>
<text text-anchor="middle" x="1373.82" y="-776.8" font-family="Times,serif" font-size="14.00">has_file</text>
</g>
<!-- Sample&#45;&gt;Specimen -->
<g id="edge20" class="edge">
<title>Sample&#45;&gt;Specimen</title>
<path fill="none" stroke="black" d="M1279.51,-883.43C1255.27,-849.07 1227.24,-802.45 1214.51,-756 1191.14,-670.7 1182.28,-639.36 1214.51,-557 1239.97,-491.94 1286.71,-432.49 1334.77,-383.83"/>
<polygon fill="black" stroke="black" points="1337.28,-386.28 1341.87,-376.73 1332.33,-381.33 1337.28,-386.28"/>
<text text-anchor="middle" x="1254.31" y="-652.3" font-family="Times,serif" font-size="14.00">has_specimen</text>
</g>
<!-- Sample&#45;&gt;Donor -->
<g id="edge13" class="edge">
<title>Sample&#45;&gt;Donor</title>
<path fill="none" stroke="black" d="M1316.18,-993.69C1311.18,-1026.48 1302.13,-1068.49 1286.04,-1103 1269.09,-1139.38 1246.54,-1175.46 1222.54,-1208.83"/>
<polygon fill="black" stroke="black" points="1219.46,-1207.12 1216.41,-1217.26 1225.12,-1211.23 1219.46,-1207.12"/>
<text text-anchor="middle" x="1321.21" y="-1091.8" font-family="Times,serif" font-size="14.00">has_donor</text>
</g>
<!-- Donor&#45;&gt;Project -->
<g id="edge5" class="edge">
<title>Donor&#45;&gt;Project</title>
<path fill="none" stroke="black" d="M1098.83,-1627.61C1098.48,-1638.56 1097.9,-1649.39 1097.04,-1660 1096.82,-1662.73 1096.57,-1665.49 1096.3,-1668.28"/>
<polygon fill="black" stroke="black" points="1092.8,-1668.12 1095.2,-1678.44 1099.75,-1668.87 1092.8,-1668.12"/>
<text text-anchor="middle" x="1130.31" y="-1648.8" font-family="Times,serif" font-size="14.00">has_project</text>
</g>
<!-- Donor&#45;&gt;Surgery -->
<g id="edge19" class="edge">
<title>Donor&#45;&gt;Surgery</title>
<path fill="none" stroke="black" d="M939.75,-1363.45C752.08,-1343.22 415.13,-1282.73 196.64,-1103 158.17,-1071.36 134.21,-1018.26 121.27,-981.19"/>
<polygon fill="black" stroke="black" points="124.57,-980.02 118.06,-971.66 117.94,-982.26 124.57,-980.02"/>
<text text-anchor="middle" x="230.75" y="-1091.8" font-family="Times,serif" font-size="14.00">has_surgery</text>
</g>
<!-- Donor&#45;&gt;Exposure -->
<g id="edge18" class="edge">
<title>Donor&#45;&gt;Exposure</title>
<path fill="none" stroke="black" d="M939.7,-1306.56C839.21,-1255.69 701.65,-1181.31 588.84,-1103 549.36,-1075.59 508.53,-1041.5 474.82,-1011.54"/>
<polygon fill="black" stroke="black" points="477.08,-1008.87 467.29,-1004.82 472.42,-1014.09 477.08,-1008.87"/>
<text text-anchor="middle" x="627.14" y="-1091.8" font-family="Times,serif" font-size="14.00">has_exposure</text>
</g>
<!-- Donor&#45;&gt;Therapy -->
<g id="edge6" class="edge">
<title>Donor&#45;&gt;Therapy</title>
<path fill="none" stroke="black" d="M939.76,-1203.17C913.01,-1170.01 885.27,-1135.47 859.4,-1103 853.1,-1095.09 846.63,-1086.94 840.12,-1078.72"/>
<polygon fill="black" stroke="black" points="842.82,-1076.48 833.87,-1070.81 837.33,-1080.83 842.82,-1076.48"/>
<text text-anchor="middle" x="893.87" y="-1091.8" font-family="Times,serif" font-size="14.00">has_therapy</text>
</g>
<!-- Donor&#45;&gt;Family -->
<g id="edge1" class="edge">
<title>Donor&#45;&gt;Family</title>
<path fill="none" stroke="black" d="M1038.37,-1121.3C1037.81,-1115.15 1037.29,-1109.04 1036.84,-1103 1036.37,-1096.8 1036.79,-1095.22 1036.84,-1089 1036.99,-1068.48 1037.26,-1046.37 1037.56,-1025.62"/>
<polygon fill="black" stroke="black" points="1041.06,-1025.6 1037.7,-1015.55 1034.06,-1025.5 1041.06,-1025.6"/>
<text text-anchor="middle" x="1068.15" y="-1091.8" font-family="Times,serif" font-size="14.00">has_family</text>
</g>
<!-- Donor&#45;&gt;File -->
<g id="edge9" class="edge">
<title>Donor&#45;&gt;File</title>
<path fill="none" stroke="black" d="M1216.59,-1301.86C1301.82,-1249.93 1404.81,-1171.3 1459.04,-1071 1486.55,-1020.14 1494.5,-870.67 1496.61,-766.13"/>
<polygon fill="black" stroke="black" points="1500.11,-765.91 1496.8,-755.84 1493.12,-765.78 1500.11,-765.91"/>
<text text-anchor="middle" x="1517.82" y="-934.3" font-family="Times,serif" font-size="14.00">has_file</text>
</g>
<!-- Donor&#45;&gt;Specimen -->
<g id="edge21" class="edge">
<title>Donor&#45;&gt;Specimen</title>
<path fill="none" stroke="black" d="M1216.23,-1341.79C1350.12,-1302.91 1545.78,-1222.61 1636.04,-1071 1694.53,-972.77 1640.43,-668.24 1614.04,-557 1610.87,-543.62 1607.22,-530.05 1603.2,-516.44"/>
<polygon fill="black" stroke="black" points="1606.45,-515.1 1600.21,-506.53 1599.75,-517.12 1606.45,-515.1"/>
<text text-anchor="middle" x="1693.31" y="-776.8" font-family="Times,serif" font-size="14.00">has_specimen</text>
</g>
<!-- Donor&#45;&gt;Sample -->
<g id="edge2" class="edge">
<title>Donor&#45;&gt;Sample</title>
<path fill="none" stroke="black" d="M1202.34,-1121.23C1208.43,-1110.27 1214.58,-1099.49 1220.73,-1089 1237.9,-1059.71 1258.67,-1028.45 1276.92,-1002.13"/>
<polygon fill="black" stroke="black" points="1279.91,-1003.97 1282.75,-993.77 1274.16,-999.97 1279.91,-1003.97"/>
<text text-anchor="middle" x="1253.7" y="-1091.8" font-family="Times,serif" font-size="14.00">has_sample</text>
</g>
</g>
</svg>
