<?xml version="1.0" encoding="UTF-8" standalone="no"?>
<!DOCTYPE svg PUBLIC "-//W3C//DTD SVG 1.1//EN"
 "http://www.w3.org/Graphics/SVG/1.1/DTD/svg11.dtd">
<!-- Generated by graphviz version 2.43.0 (0)
 -->
<!-- Title: Perl Pages: 1 -->
<svg width="1632pt" height="2200pt"
 viewBox="0.00 0.00 1631.56 2200.00" xmlns="http://www.w3.org/2000/svg" xmlns:xlink="http://www.w3.org/1999/xlink">
<g id="graph0" class="graph" transform="scale(1 1) rotate(0) translate(4 2196)">
<title>Perl</title>
<polygon fill="white" stroke="transparent" points="-4,4 -4,-2196 1627.56,-2196 1627.56,4 -4,4"/>
<!-- Sample -->
<g id="node1" class="node">
<title>Sample</title>
<path fill="none" stroke="black" d="M159.39,-1817.5C159.39,-1817.5 456.25,-1817.5 456.25,-1817.5 462.25,-1817.5 468.25,-1823.5 468.25,-1829.5 468.25,-1829.5 468.25,-2179.5 468.25,-2179.5 468.25,-2185.5 462.25,-2191.5 456.25,-2191.5 456.25,-2191.5 159.39,-2191.5 159.39,-2191.5 153.39,-2191.5 147.39,-2185.5 147.39,-2179.5 147.39,-2179.5 147.39,-1829.5 147.39,-1829.5 147.39,-1823.5 153.39,-1817.5 159.39,-1817.5"/>
<text text-anchor="middle" x="176.38" y="-2000.3" font-family="Times,serif" font-size="14.00">Sample</text>
<polyline fill="none" stroke="black" points="205.38,-1817.5 205.38,-2191.5 "/>
<text text-anchor="middle" x="215.13" y="-2000.3" font-family="Times,serif" font-size="14.00"> </text>
<polyline fill="none" stroke="black" points="224.88,-1817.5 224.88,-2191.5 "/>
<text text-anchor="middle" x="336.81" y="-2176.3" font-family="Times,serif" font-size="14.00">Time between clamping and freezing</text>
<polyline fill="none" stroke="black" points="224.88,-2169.5 448.75,-2169.5 "/>
<text text-anchor="middle" x="336.81" y="-2154.3" font-family="Times,serif" font-size="14.00">Time between excision and freezing</text>
<polyline fill="none" stroke="black" points="224.88,-2147.5 448.75,-2147.5 "/>
<text text-anchor="middle" x="336.81" y="-2132.3" font-family="Times,serif" font-size="14.00">Tissue source site</text>
<polyline fill="none" stroke="black" points="224.88,-2125.5 448.75,-2125.5 "/>
<text text-anchor="middle" x="336.81" y="-2110.3" font-family="Times,serif" font-size="14.00">Intermediate dimension</text>
<polyline fill="none" stroke="black" points="224.88,-2103.5 448.75,-2103.5 "/>
<text text-anchor="middle" x="336.81" y="-2088.3" font-family="Times,serif" font-size="14.00">ID</text>
<polyline fill="none" stroke="black" points="224.88,-2081.5 448.75,-2081.5 "/>
<text text-anchor="middle" x="336.81" y="-2066.3" font-family="Times,serif" font-size="14.00">Freezing method</text>
<polyline fill="none" stroke="black" points="224.88,-2059.5 448.75,-2059.5 "/>
<text text-anchor="middle" x="336.81" y="-2044.3" font-family="Times,serif" font-size="14.00">Sample type code</text>
<polyline fill="none" stroke="black" points="224.88,-2037.5 448.75,-2037.5 "/>
<text text-anchor="middle" x="336.81" y="-2022.3" font-family="Times,serif" font-size="14.00">OCT embedded</text>
<polyline fill="none" stroke="black" points="224.88,-2015.5 448.75,-2015.5 "/>
<text text-anchor="middle" x="336.81" y="-2000.3" font-family="Times,serif" font-size="14.00">Initial weight</text>
<polyline fill="none" stroke="black" points="224.88,-1993.5 448.75,-1993.5 "/>
<text text-anchor="middle" x="336.81" y="-1978.3" font-family="Times,serif" font-size="14.00">Sample type</text>
<polyline fill="none" stroke="black" points="224.88,-1971.5 448.75,-1971.5 "/>
<text text-anchor="middle" x="336.81" y="-1956.3" font-family="Times,serif" font-size="14.00">Shortest dimension</text>
<polyline fill="none" stroke="black" points="224.88,-1949.5 448.75,-1949.5 "/>
<text text-anchor="middle" x="336.81" y="-1934.3" font-family="Times,serif" font-size="14.00">Tissue source site code</text>
<polyline fill="none" stroke="black" points="224.88,-1927.5 448.75,-1927.5 "/>
<text text-anchor="middle" x="336.81" y="-1912.3" font-family="Times,serif" font-size="14.00">Longest dimension</text>
<polyline fill="none" stroke="black" points="224.88,-1905.5 448.75,-1905.5 "/>
<text text-anchor="middle" x="336.81" y="-1890.3" font-family="Times,serif" font-size="14.00">Current weight</text>
<polyline fill="none" stroke="black" points="224.88,-1883.5 448.75,-1883.5 "/>
<text text-anchor="middle" x="336.81" y="-1868.3" font-family="Times,serif" font-size="14.00">Days to collection</text>
<polyline fill="none" stroke="black" points="224.88,-1861.5 448.75,-1861.5 "/>
<text text-anchor="middle" x="336.81" y="-1846.3" font-family="Times,serif" font-size="14.00">Is FFPE</text>
<polyline fill="none" stroke="black" points="224.88,-1839.5 448.75,-1839.5 "/>
<text text-anchor="middle" x="336.81" y="-1824.3" font-family="Times,serif" font-size="14.00">Days to sample procurement</text>
<polyline fill="none" stroke="black" points="448.75,-1817.5 448.75,-2191.5 "/>
<text text-anchor="middle" x="458.5" y="-2000.3" font-family="Times,serif" font-size="14.00"> </text>
</g>
<!-- Case -->
<g id="node2" class="node">
<title>Case</title>
<path fill="none" stroke="black" d="M492.47,-996.5C492.47,-996.5 813.17,-996.5 813.17,-996.5 819.17,-996.5 825.17,-1002.5 825.17,-1008.5 825.17,-1008.5 825.17,-1754.5 825.17,-1754.5 825.17,-1760.5 819.17,-1766.5 813.17,-1766.5 813.17,-1766.5 492.47,-1766.5 492.47,-1766.5 486.47,-1766.5 480.47,-1760.5 480.47,-1754.5 480.47,-1754.5 480.47,-1008.5 480.47,-1008.5 480.47,-1002.5 486.47,-996.5 492.47,-996.5"/>
<text text-anchor="middle" x="502.08" y="-1377.3" font-family="Times,serif" font-size="14.00">Case</text>
<polyline fill="none" stroke="black" points="523.68,-996.5 523.68,-1766.5 "/>
<text text-anchor="middle" x="533.43" y="-1377.3" font-family="Times,serif" font-size="14.00"> </text>
<polyline fill="none" stroke="black" points="543.18,-996.5 543.18,-1766.5 "/>
<text text-anchor="middle" x="674.42" y="-1751.3" font-family="Times,serif" font-size="14.00">Disease type</text>
<polyline fill="none" stroke="black" points="543.18,-1744.5 805.67,-1744.5 "/>
<text text-anchor="middle" x="674.42" y="-1729.3" font-family="Times,serif" font-size="14.00">Pathologic T (TNM)</text>
<polyline fill="none" stroke="black" points="543.18,-1722.5 805.67,-1722.5 "/>
<text text-anchor="middle" x="674.42" y="-1707.3" font-family="Times,serif" font-size="14.00">Performance status score: Timing</text>
<polyline fill="none" stroke="black" points="543.18,-1700.5 805.67,-1700.5 "/>
<text text-anchor="middle" x="674.42" y="-1685.3" font-family="Times,serif" font-size="14.00">Vital status</text>
<polyline fill="none" stroke="black" points="543.18,-1678.5 805.67,-1678.5 "/>
<text text-anchor="middle" x="674.42" y="-1663.3" font-family="Times,serif" font-size="14.00">Investigation</text>
<polyline fill="none" stroke="black" points="543.18,-1656.5 805.67,-1656.5 "/>
<text text-anchor="middle" x="674.42" y="-1641.3" font-family="Times,serif" font-size="14.00">ICD&#45;O&#45;3 Histology</text>
<polyline fill="none" stroke="black" points="543.18,-1634.5 805.67,-1634.5 "/>
<text text-anchor="middle" x="674.42" y="-1619.3" font-family="Times,serif" font-size="14.00">Primary therapy outcome success</text>
<polyline fill="none" stroke="black" points="543.18,-1612.5 805.67,-1612.5 "/>
<text text-anchor="middle" x="674.42" y="-1597.3" font-family="Times,serif" font-size="14.00">Race</text>
<polyline fill="none" stroke="black" points="543.18,-1590.5 805.67,-1590.5 "/>
<text text-anchor="middle" x="674.42" y="-1575.3" font-family="Times,serif" font-size="14.00">Performance Status Score: Karnofsky Score</text>
<polyline fill="none" stroke="black" points="543.18,-1568.5 805.67,-1568.5 "/>
<text text-anchor="middle" x="674.42" y="-1553.3" font-family="Times,serif" font-size="14.00">Other histologic diagnosis</text>
<polyline fill="none" stroke="black" points="543.18,-1546.5 805.67,-1546.5 "/>
<text text-anchor="middle" x="674.42" y="-1531.3" font-family="Times,serif" font-size="14.00">Year of diagnosis</text>
<polyline fill="none" stroke="black" points="543.18,-1524.5 805.67,-1524.5 "/>
<text text-anchor="middle" x="674.42" y="-1509.3" font-family="Times,serif" font-size="14.00">Batch number</text>
<polyline fill="none" stroke="black" points="543.18,-1502.5 805.67,-1502.5 "/>
<text text-anchor="middle" x="674.42" y="-1487.3" font-family="Times,serif" font-size="14.00">Ethnicity</text>
<polyline fill="none" stroke="black" points="543.18,-1480.5 805.67,-1480.5 "/>
<text text-anchor="middle" x="674.42" y="-1465.3" font-family="Times,serif" font-size="14.00">Program</text>
<polyline fill="none" stroke="black" points="543.18,-1458.5 805.67,-1458.5 "/>
<text text-anchor="middle" x="674.42" y="-1443.3" font-family="Times,serif" font-size="14.00">Clinical N (TNM)</text>
<polyline fill="none" stroke="black" points="543.18,-1436.5 805.67,-1436.5 "/>
<text text-anchor="middle" x="674.42" y="-1421.3" font-family="Times,serif" font-size="14.00">Age at diagnosis</text>
<polyline fill="none" stroke="black" points="543.18,-1414.5 805.67,-1414.5 "/>
<text text-anchor="middle" x="674.42" y="-1399.3" font-family="Times,serif" font-size="14.00">Prior diagnosis</text>
<polyline fill="none" stroke="black" points="543.18,-1392.5 805.67,-1392.5 "/>
<text text-anchor="middle" x="674.42" y="-1377.3" font-family="Times,serif" font-size="14.00">ID</text>
<polyline fill="none" stroke="black" points="543.18,-1370.5 805.67,-1370.5 "/>
<text text-anchor="middle" x="674.42" y="-1355.3" font-family="Times,serif" font-size="14.00">Days to death</text>
<polyline fill="none" stroke="black" points="543.18,-1348.5 805.67,-1348.5 "/>
<text text-anchor="middle" x="674.42" y="-1333.3" font-family="Times,serif" font-size="14.00">Histologic diagnosis</text>
<polyline fill="none" stroke="black" points="543.18,-1326.5 805.67,-1326.5 "/>
<text text-anchor="middle" x="674.42" y="-1311.3" font-family="Times,serif" font-size="14.00">New tumor event after initial treatment</text>
<polyline fill="none" stroke="black" points="543.18,-1304.5 805.67,-1304.5 "/>
<text text-anchor="middle" x="674.42" y="-1289.3" font-family="Times,serif" font-size="14.00">Pathologic N (TNM)</text>
<polyline fill="none" stroke="black" points="543.18,-1282.5 805.67,-1282.5 "/>
<text text-anchor="middle" x="674.42" y="-1267.3" font-family="Times,serif" font-size="14.00">ICD&#45;O&#45;3 Site</text>
<polyline fill="none" stroke="black" points="543.18,-1260.5 805.67,-1260.5 "/>
<text text-anchor="middle" x="674.42" y="-1245.3" font-family="Times,serif" font-size="14.00">Clinical stage</text>
<polyline fill="none" stroke="black" points="543.18,-1238.5 805.67,-1238.5 "/>
<text text-anchor="middle" x="674.42" y="-1223.3" font-family="Times,serif" font-size="14.00">ICD&#45;10</text>
<polyline fill="none" stroke="black" points="543.18,-1216.5 805.67,-1216.5 "/>
<text text-anchor="middle" x="674.42" y="-1201.3" font-family="Times,serif" font-size="14.00">Days to last follow up</text>
<polyline fill="none" stroke="black" points="543.18,-1194.5 805.67,-1194.5 "/>
<text text-anchor="middle" x="674.42" y="-1179.3" font-family="Times,serif" font-size="14.00">Tumor status</text>
<polyline fill="none" stroke="black" points="543.18,-1172.5 805.67,-1172.5 "/>
<text text-anchor="middle" x="674.42" y="-1157.3" font-family="Times,serif" font-size="14.00">Gender</text>
<polyline fill="none" stroke="black" points="543.18,-1150.5 805.67,-1150.5 "/>
<text text-anchor="middle" x="674.42" y="-1135.3" font-family="Times,serif" font-size="14.00">Primary site</text>
<polyline fill="none" stroke="black" points="543.18,-1128.5 805.67,-1128.5 "/>
<text text-anchor="middle" x="674.42" y="-1113.3" font-family="Times,serif" font-size="14.00">Clinical T (TNM)</text>
<polyline fill="none" stroke="black" points="543.18,-1106.5 805.67,-1106.5 "/>
<text text-anchor="middle" x="674.42" y="-1091.3" font-family="Times,serif" font-size="14.00">Pathologic M (TNM)</text>
<polyline fill="none" stroke="black" points="543.18,-1084.5 805.67,-1084.5 "/>
<text text-anchor="middle" x="674.42" y="-1069.3" font-family="Times,serif" font-size="14.00">Pathologic stage</text>
<polyline fill="none" stroke="black" points="543.18,-1062.5 805.67,-1062.5 "/>
<text text-anchor="middle" x="674.42" y="-1047.3" font-family="Times,serif" font-size="14.00">Clinical M (TNM)</text>
<polyline fill="none" stroke="black" points="543.18,-1040.5 805.67,-1040.5 "/>
<text text-anchor="middle" x="674.42" y="-1025.3" font-family="Times,serif" font-size="14.00">Country of sample procurement</text>
<polyline fill="none" stroke="black" points="543.18,-1018.5 805.67,-1018.5 "/>
<text text-anchor="middle" x="674.42" y="-1003.3" font-family="Times,serif" font-size="14.00">Performance Status Score: ECOG</text>
<polyline fill="none" stroke="black" points="805.67,-996.5 805.67,-1766.5 "/>
<text text-anchor="middle" x="815.42" y="-1377.3" font-family="Times,serif" font-size="14.00"> </text>
</g>
<!-- Sample&#45;&gt;Case -->
<g id="edge8" class="edge">
<title>Sample&#45;&gt;Case</title>
<path fill="none" stroke="black" d="M411.33,-1817.18C431.63,-1780.64 453.45,-1741.36 475.38,-1701.89"/>
<polygon fill="black" stroke="black" points="478.56,-1703.37 480.36,-1692.93 472.44,-1699.97 478.56,-1703.37"/>
<text text-anchor="middle" x="449.69" y="-1787.8" font-family="Times,serif" font-size="14.00">has_case</text>
</g>
<!-- Portion -->
<g id="node6" class="node">
<title>Portion</title>
<path fill="none" stroke="black" d="M127.96,-476.5C127.96,-476.5 303.68,-476.5 303.68,-476.5 309.68,-476.5 315.68,-482.5 315.68,-488.5 315.68,-488.5 315.68,-552.5 315.68,-552.5 315.68,-558.5 309.68,-564.5 303.68,-564.5 303.68,-564.5 127.96,-564.5 127.96,-564.5 121.96,-564.5 115.96,-558.5 115.96,-552.5 115.96,-552.5 115.96,-488.5 115.96,-488.5 115.96,-482.5 121.96,-476.5 127.96,-476.5"/>
<text text-anchor="middle" x="144.57" y="-516.3" font-family="Times,serif" font-size="14.00">Portion</text>
<polyline fill="none" stroke="black" points="173.18,-476.5 173.18,-564.5 "/>
<text text-anchor="middle" x="182.93" y="-516.3" font-family="Times,serif" font-size="14.00"> </text>
<polyline fill="none" stroke="black" points="192.68,-476.5 192.68,-564.5 "/>
<text text-anchor="middle" x="244.43" y="-549.3" font-family="Times,serif" font-size="14.00">ID</text>
<polyline fill="none" stroke="black" points="192.68,-542.5 296.18,-542.5 "/>
<text text-anchor="middle" x="244.43" y="-527.3" font-family="Times,serif" font-size="14.00">Portion number</text>
<polyline fill="none" stroke="black" points="192.68,-520.5 296.18,-520.5 "/>
<text text-anchor="middle" x="244.43" y="-505.3" font-family="Times,serif" font-size="14.00">Is FFPE</text>
<polyline fill="none" stroke="black" points="192.68,-498.5 296.18,-498.5 "/>
<text text-anchor="middle" x="244.43" y="-483.3" font-family="Times,serif" font-size="14.00">Weight</text>
<polyline fill="none" stroke="black" points="296.18,-476.5 296.18,-564.5 "/>
<text text-anchor="middle" x="305.93" y="-516.3" font-family="Times,serif" font-size="14.00"> </text>
</g>
<!-- Sample&#45;&gt;Portion -->
<g id="edge17" class="edge">
<title>Sample&#45;&gt;Portion</title>
<path fill="none" stroke="black" d="M198.23,-1817.39C191.14,-1800.7 184.84,-1783.77 179.82,-1767 77.02,-1423.9 85.2,-1321.19 111.71,-964 123.32,-807.6 113.31,-763.48 163.82,-615 168.58,-601 175.41,-586.66 182.56,-573.55"/>
<polygon fill="black" stroke="black" points="185.69,-575.12 187.54,-564.69 179.59,-571.69 185.69,-575.12"/>
<text text-anchor="middle" x="144.87" y="-966.8" font-family="Times,serif" font-size="14.00">has_portion</text>
</g>
<!-- File -->
<g id="node8" class="node">
<title>File</title>
<path fill="none" stroke="black" d="M201.67,-615.5C201.67,-615.5 397.97,-615.5 397.97,-615.5 403.97,-615.5 409.97,-621.5 409.97,-627.5 409.97,-627.5 409.97,-933.5 409.97,-933.5 409.97,-939.5 403.97,-945.5 397.97,-945.5 397.97,-945.5 201.67,-945.5 201.67,-945.5 195.67,-945.5 189.67,-939.5 189.67,-933.5 189.67,-933.5 189.67,-627.5 189.67,-627.5 189.67,-621.5 195.67,-615.5 201.67,-615.5"/>
<text text-anchor="middle" x="208.56" y="-776.3" font-family="Times,serif" font-size="14.00">File</text>
<polyline fill="none" stroke="black" points="227.45,-615.5 227.45,-945.5 "/>
<text text-anchor="middle" x="237.2" y="-776.3" font-family="Times,serif" font-size="14.00"> </text>
<polyline fill="none" stroke="black" points="246.95,-615.5 246.95,-945.5 "/>
<text text-anchor="middle" x="318.71" y="-930.3" font-family="Times,serif" font-size="14.00">Data submitting center</text>
<polyline fill="none" stroke="black" points="246.95,-923.5 390.47,-923.5 "/>
<text text-anchor="middle" x="318.71" y="-908.3" font-family="Times,serif" font-size="14.00">File size</text>
<polyline fill="none" stroke="black" points="246.95,-901.5 390.47,-901.5 "/>
<text text-anchor="middle" x="318.71" y="-886.3" font-family="Times,serif" font-size="14.00">Data subtype</text>
<polyline fill="none" stroke="black" points="246.95,-879.5 390.47,-879.5 "/>
<text text-anchor="middle" x="318.71" y="-864.3" font-family="Times,serif" font-size="14.00">Access level</text>
<polyline fill="none" stroke="black" points="246.95,-857.5 390.47,-857.5 "/>
<text text-anchor="middle" x="318.71" y="-842.3" font-family="Times,serif" font-size="14.00">Platform</text>
<polyline fill="none" stroke="black" points="246.95,-835.5 390.47,-835.5 "/>
<text text-anchor="middle" x="318.71" y="-820.3" font-family="Times,serif" font-size="14.00">Disease type</text>
<polyline fill="none" stroke="black" points="246.95,-813.5 390.47,-813.5 "/>
<text text-anchor="middle" x="318.71" y="-798.3" font-family="Times,serif" font-size="14.00">GDC file UUID</text>
<polyline fill="none" stroke="black" points="246.95,-791.5 390.47,-791.5 "/>
<text text-anchor="middle" x="318.71" y="-776.3" font-family="Times,serif" font-size="14.00">Updated Datetime</text>
<polyline fill="none" stroke="black" points="246.95,-769.5 390.47,-769.5 "/>
<text text-anchor="middle" x="318.71" y="-754.3" font-family="Times,serif" font-size="14.00">Investigation</text>
<polyline fill="none" stroke="black" points="246.95,-747.5 390.47,-747.5 "/>
<text text-anchor="middle" x="318.71" y="-732.3" font-family="Times,serif" font-size="14.00">Submitter ID</text>
<polyline fill="none" stroke="black" points="246.95,-725.5 390.47,-725.5 "/>
<text text-anchor="middle" x="318.71" y="-710.3" font-family="Times,serif" font-size="14.00">Data type</text>
<polyline fill="none" stroke="black" points="246.95,-703.5 390.47,-703.5 "/>
<text text-anchor="middle" x="318.71" y="-688.3" font-family="Times,serif" font-size="14.00">Experimental strategy</text>
<polyline fill="none" stroke="black" points="246.95,-681.5 390.47,-681.5 "/>
<text text-anchor="middle" x="318.71" y="-666.3" font-family="Times,serif" font-size="14.00">Data format</text>
<polyline fill="none" stroke="black" points="246.95,-659.5 390.47,-659.5 "/>
<text text-anchor="middle" x="318.71" y="-644.3" font-family="Times,serif" font-size="14.00">Reference genome</text>
<polyline fill="none" stroke="black" points="246.95,-637.5 390.47,-637.5 "/>
<text text-anchor="middle" x="318.71" y="-622.3" font-family="Times,serif" font-size="14.00">Created datetime</text>
<polyline fill="none" stroke="black" points="390.47,-615.5 390.47,-945.5 "/>
<text text-anchor="middle" x="400.22" y="-776.3" font-family="Times,serif" font-size="14.00"> </text>
</g>
<!-- Sample&#45;&gt;File -->
<g id="edge23" class="edge">
<title>Sample&#45;&gt;File</title>
<path fill="none" stroke="black" d="M273.72,-1817.31C271.51,-1800.35 269.63,-1783.39 268.27,-1767 239.91,-1425.51 243.27,-1337.75 268.27,-996 269.22,-982.99 270.49,-969.57 271.98,-956.08"/>
<polygon fill="black" stroke="black" points="275.5,-956.1 273.16,-945.77 268.55,-955.31 275.5,-956.1"/>
<text text-anchor="middle" x="290.59" y="-1377.3" font-family="Times,serif" font-size="14.00">has_file</text>
</g>
<!-- Case&#45;&gt;Sample -->
<g id="edge12" class="edge">
<title>Case&#45;&gt;Sample</title>
<path fill="none" stroke="black" d="M497.65,-1766.6C491.51,-1777.63 485.23,-1788.45 478.82,-1799 476.84,-1802.26 474.81,-1805.52 472.74,-1808.77"/>
<polygon fill="black" stroke="black" points="469.65,-1807.09 467.15,-1817.39 475.53,-1810.9 469.65,-1807.09"/>
<text text-anchor="middle" x="518.48" y="-1787.8" font-family="Times,serif" font-size="14.00">has_sample</text>
</g>
<!-- Follow up -->
<g id="node7" class="node">
<title>Follow up</title>
<path fill="none" stroke="black" d="M762.49,-637.5C762.49,-637.5 1113.15,-637.5 1113.15,-637.5 1119.15,-637.5 1125.15,-643.5 1125.15,-649.5 1125.15,-649.5 1125.15,-911.5 1125.15,-911.5 1125.15,-917.5 1119.15,-923.5 1113.15,-923.5 1113.15,-923.5 762.49,-923.5 762.49,-923.5 756.49,-923.5 750.49,-917.5 750.49,-911.5 750.49,-911.5 750.49,-649.5 750.49,-649.5 750.49,-643.5 756.49,-637.5 762.49,-637.5"/>
<text text-anchor="middle" x="787.08" y="-776.3" font-family="Times,serif" font-size="14.00">Follow up</text>
<polyline fill="none" stroke="black" points="823.66,-637.5 823.66,-923.5 "/>
<text text-anchor="middle" x="833.41" y="-776.3" font-family="Times,serif" font-size="14.00"> </text>
<polyline fill="none" stroke="black" points="843.16,-637.5 843.16,-923.5 "/>
<text text-anchor="middle" x="974.41" y="-908.3" font-family="Times,serif" font-size="14.00">Tumor status</text>
<polyline fill="none" stroke="black" points="843.16,-901.5 1105.65,-901.5 "/>
<text text-anchor="middle" x="974.41" y="-886.3" font-family="Times,serif" font-size="14.00">Days to last follow up</text>
<polyline fill="none" stroke="black" points="843.16,-879.5 1105.65,-879.5 "/>
<text text-anchor="middle" x="974.41" y="-864.3" font-family="Times,serif" font-size="14.00">New tumor event type</text>
<polyline fill="none" stroke="black" points="843.16,-857.5 1105.65,-857.5 "/>
<text text-anchor="middle" x="974.41" y="-842.3" font-family="Times,serif" font-size="14.00">Performance Status Score: ECOG</text>
<polyline fill="none" stroke="black" points="843.16,-835.5 1105.65,-835.5 "/>
<text text-anchor="middle" x="974.41" y="-820.3" font-family="Times,serif" font-size="14.00">Days to death</text>
<polyline fill="none" stroke="black" points="843.16,-813.5 1105.65,-813.5 "/>
<text text-anchor="middle" x="974.41" y="-798.3" font-family="Times,serif" font-size="14.00">ID</text>
<polyline fill="none" stroke="black" points="843.16,-791.5 1105.65,-791.5 "/>
<text text-anchor="middle" x="974.41" y="-776.3" font-family="Times,serif" font-size="14.00">Other new tumor anatomic site</text>
<polyline fill="none" stroke="black" points="843.16,-769.5 1105.65,-769.5 "/>
<text text-anchor="middle" x="974.41" y="-754.3" font-family="Times,serif" font-size="14.00">New tumor event after initial treatment</text>
<polyline fill="none" stroke="black" points="843.16,-747.5 1105.65,-747.5 "/>
<text text-anchor="middle" x="974.41" y="-732.3" font-family="Times,serif" font-size="14.00">Vital status</text>
<polyline fill="none" stroke="black" points="843.16,-725.5 1105.65,-725.5 "/>
<text text-anchor="middle" x="974.41" y="-710.3" font-family="Times,serif" font-size="14.00">Performance status score: Timing</text>
<polyline fill="none" stroke="black" points="843.16,-703.5 1105.65,-703.5 "/>
<text text-anchor="middle" x="974.41" y="-688.3" font-family="Times,serif" font-size="14.00">New tumor anatomic site</text>
<polyline fill="none" stroke="black" points="843.16,-681.5 1105.65,-681.5 "/>
<text text-anchor="middle" x="974.41" y="-666.3" font-family="Times,serif" font-size="14.00">Primary therapy outcome success</text>
<polyline fill="none" stroke="black" points="843.16,-659.5 1105.65,-659.5 "/>
<text text-anchor="middle" x="974.41" y="-644.3" font-family="Times,serif" font-size="14.00">Performance Status Score: Karnofsky Score</text>
<polyline fill="none" stroke="black" points="1105.65,-637.5 1105.65,-923.5 "/>
<text text-anchor="middle" x="1115.4" y="-776.3" font-family="Times,serif" font-size="14.00"> </text>
</g>
<!-- Case&#45;&gt;Follow up -->
<g id="edge27" class="edge">
<title>Case&#45;&gt;Follow up</title>
<path fill="none" stroke="black" d="M825.29,-1076.71C841.82,-1043.78 857.67,-1010.45 871.82,-978 878.1,-963.59 884.16,-948.38 889.89,-933.05"/>
<polygon fill="black" stroke="black" points="893.24,-934.1 893.42,-923.5 886.67,-931.67 893.24,-934.1"/>
<text text-anchor="middle" x="917.42" y="-966.8" font-family="Times,serif" font-size="14.00">has_follow_up</text>
</g>
<!-- Case&#45;&gt;File -->
<g id="edge22" class="edge">
<title>Case&#45;&gt;File</title>
<path fill="none" stroke="black" d="M480.37,-1079.35C460.11,-1050.33 438.79,-1022.04 416.82,-996 408.99,-986.72 403.65,-987.64 396.27,-978 390.48,-970.44 384.9,-962.49 379.54,-954.28"/>
<polygon fill="black" stroke="black" points="382.36,-952.19 374.04,-945.64 376.46,-955.95 382.36,-952.19"/>
<text text-anchor="middle" x="418.59" y="-966.8" font-family="Times,serif" font-size="14.00">has_file</text>
</g>
<!-- Radiation therapy -->
<g id="node9" class="node">
<title>Radiation therapy</title>
<path fill="none" stroke="black" d="M1154.93,-747.5C1154.93,-747.5 1424.7,-747.5 1424.7,-747.5 1430.7,-747.5 1436.7,-753.5 1436.7,-759.5 1436.7,-759.5 1436.7,-801.5 1436.7,-801.5 1436.7,-807.5 1430.7,-813.5 1424.7,-813.5 1424.7,-813.5 1154.93,-813.5 1154.93,-813.5 1148.93,-813.5 1142.93,-807.5 1142.93,-801.5 1142.93,-801.5 1142.93,-759.5 1142.93,-759.5 1142.93,-753.5 1148.93,-747.5 1154.93,-747.5"/>
<text text-anchor="middle" x="1200.89" y="-776.3" font-family="Times,serif" font-size="14.00">Radiation therapy</text>
<polyline fill="none" stroke="black" points="1258.85,-747.5 1258.85,-813.5 "/>
<text text-anchor="middle" x="1268.6" y="-776.3" font-family="Times,serif" font-size="14.00"> </text>
<polyline fill="none" stroke="black" points="1278.35,-747.5 1278.35,-813.5 "/>
<text text-anchor="middle" x="1347.77" y="-798.3" font-family="Times,serif" font-size="14.00">ID</text>
<polyline fill="none" stroke="black" points="1278.35,-791.5 1417.2,-791.5 "/>
<text text-anchor="middle" x="1347.77" y="-776.3" font-family="Times,serif" font-size="14.00">Radiation type</text>
<polyline fill="none" stroke="black" points="1278.35,-769.5 1417.2,-769.5 "/>
<text text-anchor="middle" x="1347.77" y="-754.3" font-family="Times,serif" font-size="14.00">Radiation therapy site</text>
<polyline fill="none" stroke="black" points="1417.2,-747.5 1417.2,-813.5 "/>
<text text-anchor="middle" x="1426.95" y="-776.3" font-family="Times,serif" font-size="14.00"> </text>
</g>
<!-- Case&#45;&gt;Radiation therapy -->
<g id="edge14" class="edge">
<title>Case&#45;&gt;Radiation therapy</title>
<path fill="none" stroke="black" d="M825.33,-1140.46C884.68,-1073.72 956.33,-1007.65 1035.42,-964 1074.34,-942.52 1094.73,-967.18 1133.82,-946 1188.68,-916.29 1235.41,-860.3 1263.05,-821.97"/>
<polygon fill="black" stroke="black" points="1266.05,-823.78 1268.98,-813.6 1260.34,-819.73 1266.05,-823.78"/>
<text text-anchor="middle" x="1097.02" y="-966.8" font-family="Times,serif" font-size="14.00">has_radiation_therapy</text>
</g>
<!-- Drug therapy -->
<g id="node10" class="node">
<title>Drug therapy</title>
<path fill="none" stroke="black" d="M439.51,-747.5C439.51,-747.5 720.13,-747.5 720.13,-747.5 726.13,-747.5 732.13,-753.5 732.13,-759.5 732.13,-759.5 732.13,-801.5 732.13,-801.5 732.13,-807.5 726.13,-813.5 720.13,-813.5 720.13,-813.5 439.51,-813.5 439.51,-813.5 433.51,-813.5 427.51,-807.5 427.51,-801.5 427.51,-801.5 427.51,-759.5 427.51,-759.5 427.51,-753.5 433.51,-747.5 439.51,-747.5"/>
<text text-anchor="middle" x="472.63" y="-776.3" font-family="Times,serif" font-size="14.00">Drug therapy</text>
<polyline fill="none" stroke="black" points="517.76,-747.5 517.76,-813.5 "/>
<text text-anchor="middle" x="527.51" y="-776.3" font-family="Times,serif" font-size="14.00"> </text>
<polyline fill="none" stroke="black" points="537.26,-747.5 537.26,-813.5 "/>
<text text-anchor="middle" x="624.94" y="-798.3" font-family="Times,serif" font-size="14.00">Pharmaceutical therapy type</text>
<polyline fill="none" stroke="black" points="537.26,-791.5 712.63,-791.5 "/>
<text text-anchor="middle" x="624.94" y="-776.3" font-family="Times,serif" font-size="14.00">ID</text>
<polyline fill="none" stroke="black" points="537.26,-769.5 712.63,-769.5 "/>
<text text-anchor="middle" x="624.94" y="-754.3" font-family="Times,serif" font-size="14.00">Drug name</text>
<polyline fill="none" stroke="black" points="712.63,-747.5 712.63,-813.5 "/>
<text text-anchor="middle" x="722.38" y="-776.3" font-family="Times,serif" font-size="14.00"> </text>
</g>
<!-- Case&#45;&gt;Drug therapy -->
<g id="edge19" class="edge">
<title>Case&#45;&gt;Drug therapy</title>
<path fill="none" stroke="black" d="M635.67,-996.34C634.18,-985.43 632.56,-974.63 630.82,-964 622.76,-914.89 606.42,-860.09 594.39,-823.48"/>
<polygon fill="black" stroke="black" points="597.6,-822.04 591.13,-813.65 590.96,-824.25 597.6,-822.04"/>
<text text-anchor="middle" x="682.97" y="-966.8" font-family="Times,serif" font-size="14.00">has_drug_therapy</text>
</g>
<!-- New tumor event -->
<g id="node11" class="node">
<title>New tumor event</title>
<path fill="none" stroke="black" d="M1180.02,-487.5C1180.02,-487.5 1497.61,-487.5 1497.61,-487.5 1503.61,-487.5 1509.61,-493.5 1509.61,-499.5 1509.61,-499.5 1509.61,-541.5 1509.61,-541.5 1509.61,-547.5 1503.61,-553.5 1497.61,-553.5 1497.61,-553.5 1180.02,-553.5 1180.02,-553.5 1174.02,-553.5 1168.02,-547.5 1168.02,-541.5 1168.02,-541.5 1168.02,-499.5 1168.02,-499.5 1168.02,-493.5 1174.02,-487.5 1180.02,-487.5"/>
<text text-anchor="middle" x="1224.62" y="-516.3" font-family="Times,serif" font-size="14.00">New tumor event</text>
<polyline fill="none" stroke="black" points="1281.22,-487.5 1281.22,-553.5 "/>
<text text-anchor="middle" x="1290.97" y="-516.3" font-family="Times,serif" font-size="14.00"> </text>
<polyline fill="none" stroke="black" points="1300.72,-487.5 1300.72,-553.5 "/>
<text text-anchor="middle" x="1395.41" y="-538.3" font-family="Times,serif" font-size="14.00">New tumor event type</text>
<polyline fill="none" stroke="black" points="1300.72,-531.5 1490.11,-531.5 "/>
<text text-anchor="middle" x="1395.41" y="-516.3" font-family="Times,serif" font-size="14.00">Other new tumor anatomic site</text>
<polyline fill="none" stroke="black" points="1300.72,-509.5 1490.11,-509.5 "/>
<text text-anchor="middle" x="1395.41" y="-494.3" font-family="Times,serif" font-size="14.00">New tumor anatomic site</text>
<polyline fill="none" stroke="black" points="1490.11,-487.5 1490.11,-553.5 "/>
<text text-anchor="middle" x="1499.86" y="-516.3" font-family="Times,serif" font-size="14.00"> </text>
</g>
<!-- Case&#45;&gt;New tumor event -->
<g id="edge26" class="edge">
<title>Case&#45;&gt;New tumor event</title>
<path fill="none" stroke="black" d="M825.27,-1341.26C1015.45,-1287.74 1312.21,-1171.56 1445.82,-946 1520.79,-819.43 1506.65,-748.94 1445.82,-615 1436,-593.38 1418.44,-574.8 1400.34,-560.03"/>
<polygon fill="black" stroke="black" points="1402.05,-556.92 1392.02,-553.51 1397.73,-562.43 1402.05,-556.92"/>
<text text-anchor="middle" x="1560.19" y="-776.3" font-family="Times,serif" font-size="14.00">has_new_tumor_event</text>
</g>
<!-- Aliquot -->
<g id="node3" class="node">
<title>Aliquot</title>
<path fill="none" stroke="black" d="M416.27,-0.5C416.27,-0.5 585.36,-0.5 585.36,-0.5 591.36,-0.5 597.36,-6.5 597.36,-12.5 597.36,-12.5 597.36,-54.5 597.36,-54.5 597.36,-60.5 591.36,-66.5 585.36,-66.5 585.36,-66.5 416.27,-66.5 416.27,-66.5 410.27,-66.5 404.27,-60.5 404.27,-54.5 404.27,-54.5 404.27,-12.5 404.27,-12.5 404.27,-6.5 410.27,-0.5 416.27,-0.5"/>
<text text-anchor="middle" x="433.66" y="-29.3" font-family="Times,serif" font-size="14.00">Aliquot</text>
<polyline fill="none" stroke="black" points="463.05,-0.5 463.05,-66.5 "/>
<text text-anchor="middle" x="472.8" y="-29.3" font-family="Times,serif" font-size="14.00"> </text>
<polyline fill="none" stroke="black" points="482.55,-0.5 482.55,-66.5 "/>
<text text-anchor="middle" x="530.21" y="-51.3" font-family="Times,serif" font-size="14.00">ID</text>
<polyline fill="none" stroke="black" points="482.55,-44.5 577.86,-44.5 "/>
<text text-anchor="middle" x="530.21" y="-29.3" font-family="Times,serif" font-size="14.00">Concentration</text>
<polyline fill="none" stroke="black" points="482.55,-22.5 577.86,-22.5 "/>
<text text-anchor="middle" x="530.21" y="-7.3" font-family="Times,serif" font-size="14.00">Amount</text>
<polyline fill="none" stroke="black" points="577.86,-0.5 577.86,-66.5 "/>
<text text-anchor="middle" x="587.61" y="-29.3" font-family="Times,serif" font-size="14.00"> </text>
</g>
<!-- Analyte -->
<g id="node4" class="node">
<title>Analyte</title>
<path fill="none" stroke="black" d="M383.15,-183.5C383.15,-183.5 626.49,-183.5 626.49,-183.5 632.49,-183.5 638.49,-189.5 638.49,-195.5 638.49,-195.5 638.49,-347.5 638.49,-347.5 638.49,-353.5 632.49,-359.5 626.49,-359.5 626.49,-359.5 383.15,-359.5 383.15,-359.5 377.15,-359.5 371.15,-353.5 371.15,-347.5 371.15,-347.5 371.15,-195.5 371.15,-195.5 371.15,-189.5 377.15,-183.5 383.15,-183.5"/>
<text text-anchor="middle" x="401.31" y="-267.3" font-family="Times,serif" font-size="14.00">Analyte</text>
<polyline fill="none" stroke="black" points="431.47,-183.5 431.47,-359.5 "/>
<text text-anchor="middle" x="441.22" y="-267.3" font-family="Times,serif" font-size="14.00"> </text>
<polyline fill="none" stroke="black" points="450.97,-183.5 450.97,-359.5 "/>
<text text-anchor="middle" x="534.98" y="-344.3" font-family="Times,serif" font-size="14.00">Analyte type code</text>
<polyline fill="none" stroke="black" points="450.97,-337.5 618.99,-337.5 "/>
<text text-anchor="middle" x="534.98" y="-322.3" font-family="Times,serif" font-size="14.00">Analyte type</text>
<polyline fill="none" stroke="black" points="450.97,-315.5 618.99,-315.5 "/>
<text text-anchor="middle" x="534.98" y="-300.3" font-family="Times,serif" font-size="14.00">Amount</text>
<polyline fill="none" stroke="black" points="450.97,-293.5 618.99,-293.5 "/>
<text text-anchor="middle" x="534.98" y="-278.3" font-family="Times,serif" font-size="14.00">A260_A280 ratio</text>
<polyline fill="none" stroke="black" points="450.97,-271.5 618.99,-271.5 "/>
<text text-anchor="middle" x="534.98" y="-256.3" font-family="Times,serif" font-size="14.00">Concentration</text>
<polyline fill="none" stroke="black" points="450.97,-249.5 618.99,-249.5 "/>
<text text-anchor="middle" x="534.98" y="-234.3" font-family="Times,serif" font-size="14.00">ID</text>
<polyline fill="none" stroke="black" points="450.97,-227.5 618.99,-227.5 "/>
<text text-anchor="middle" x="534.98" y="-212.3" font-family="Times,serif" font-size="14.00">Spectrophotometer method</text>
<polyline fill="none" stroke="black" points="450.97,-205.5 618.99,-205.5 "/>
<text text-anchor="middle" x="534.98" y="-190.3" font-family="Times,serif" font-size="14.00">Well number</text>
<polyline fill="none" stroke="black" points="618.99,-183.5 618.99,-359.5 "/>
<text text-anchor="middle" x="628.74" y="-267.3" font-family="Times,serif" font-size="14.00"> </text>
</g>
<!-- Aliquot&#45;&gt;Analyte -->
<g id="edge5" class="edge">
<title>Aliquot&#45;&gt;Analyte</title>
<path fill="none" stroke="black" d="M464.46,-66.79C460.09,-72.4 456.28,-78.53 453.73,-85 442.63,-113.2 445.81,-144.72 454.55,-173.66"/>
<polygon fill="black" stroke="black" points="451.29,-174.94 457.72,-183.36 457.95,-172.77 451.29,-174.94"/>
<text text-anchor="middle" x="486.86" y="-87.8" font-family="Times,serif" font-size="14.00">has_analyte</text>
</g>
<!-- Aliquot&#45;&gt;File -->
<g id="edge20" class="edge">
<title>Aliquot&#45;&gt;File</title>
<path fill="none" stroke="black" d="M404.05,-39.11C290.21,-46.79 111.38,-66.72 69.82,-117 -57.48,-270.98 11.66,-389.33 106.82,-565 126.86,-602.01 154.54,-637.83 182.68,-669.25"/>
<polygon fill="black" stroke="black" points="180.14,-671.66 189.45,-676.72 185.33,-666.96 180.14,-671.66"/>
<text text-anchor="middle" x="71.59" y="-446.8" font-family="Times,serif" font-size="14.00">has_file</text>
</g>
<!-- Analyte&#45;&gt;Aliquot -->
<g id="edge2" class="edge">
<title>Analyte&#45;&gt;Aliquot</title>
<path fill="none" stroke="black" d="M525.03,-183.05C529.29,-151.86 530.68,-116.64 523.82,-85 523.17,-82.04 522.34,-79.04 521.38,-76.06"/>
<polygon fill="black" stroke="black" points="524.65,-74.83 517.9,-66.67 518.09,-77.26 524.65,-74.83"/>
<text text-anchor="middle" x="558.09" y="-87.8" font-family="Times,serif" font-size="14.00">has_aliquot</text>
</g>
<!-- Analyte&#45;&gt;Portion -->
<g id="edge15" class="edge">
<title>Analyte&#45;&gt;Portion</title>
<path fill="none" stroke="black" d="M438.27,-359.8C416.18,-384.06 389.97,-408.51 361.82,-426 338.13,-440.71 326.1,-430.48 301.71,-444 297.65,-446.25 285.06,-456.97 270.72,-469.65"/>
<polygon fill="black" stroke="black" points="268.25,-467.16 263.11,-476.42 272.9,-472.39 268.25,-467.16"/>
<text text-anchor="middle" x="334.87" y="-446.8" font-family="Times,serif" font-size="14.00">has_portion</text>
</g>
<!-- Analyte&#45;&gt;File -->
<g id="edge24" class="edge">
<title>Analyte&#45;&gt;File</title>
<path fill="none" stroke="black" d="M534.07,-359.67C549.24,-421.54 557.63,-504.09 519.82,-565 493.4,-607.56 457.06,-582.65 418.82,-615 418.45,-615.31 418.08,-615.63 417.71,-615.94"/>
<polygon fill="black" stroke="black" points="415.19,-613.5 410.04,-622.77 419.84,-618.73 415.19,-613.5"/>
<text text-anchor="middle" x="568.59" y="-516.3" font-family="Times,serif" font-size="14.00">has_file</text>
</g>
<!-- Slide -->
<g id="node5" class="node">
<title>Slide</title>
<path fill="none" stroke="black" d="M90.83,-117.5C90.83,-117.5 340.8,-117.5 340.8,-117.5 346.8,-117.5 352.8,-123.5 352.8,-129.5 352.8,-129.5 352.8,-413.5 352.8,-413.5 352.8,-419.5 346.8,-425.5 340.8,-425.5 340.8,-425.5 90.83,-425.5 90.83,-425.5 84.83,-425.5 78.83,-419.5 78.83,-413.5 78.83,-413.5 78.83,-129.5 78.83,-129.5 78.83,-123.5 84.83,-117.5 90.83,-117.5"/>
<text text-anchor="middle" x="101.22" y="-267.3" font-family="Times,serif" font-size="14.00">Slide</text>
<polyline fill="none" stroke="black" points="123.61,-117.5 123.61,-425.5 "/>
<text text-anchor="middle" x="133.36" y="-267.3" font-family="Times,serif" font-size="14.00"> </text>
<polyline fill="none" stroke="black" points="143.11,-117.5 143.11,-425.5 "/>
<text text-anchor="middle" x="238.21" y="-410.3" font-family="Times,serif" font-size="14.00">Percent eosinophil infiltration</text>
<polyline fill="none" stroke="black" points="143.11,-403.5 333.3,-403.5 "/>
<text text-anchor="middle" x="238.21" y="-388.3" font-family="Times,serif" font-size="14.00">Percent normal cells</text>
<polyline fill="none" stroke="black" points="143.11,-381.5 333.3,-381.5 "/>
<text text-anchor="middle" x="238.21" y="-366.3" font-family="Times,serif" font-size="14.00">Section location</text>
<polyline fill="none" stroke="black" points="143.11,-359.5 333.3,-359.5 "/>
<text text-anchor="middle" x="238.21" y="-344.3" font-family="Times,serif" font-size="14.00">Percent necrosis</text>
<polyline fill="none" stroke="black" points="143.11,-337.5 333.3,-337.5 "/>
<text text-anchor="middle" x="238.21" y="-322.3" font-family="Times,serif" font-size="14.00">Percent inflam infiltration</text>
<polyline fill="none" stroke="black" points="143.11,-315.5 333.3,-315.5 "/>
<text text-anchor="middle" x="238.21" y="-300.3" font-family="Times,serif" font-size="14.00">Percent granulocyte infiltration</text>
<polyline fill="none" stroke="black" points="143.11,-293.5 333.3,-293.5 "/>
<text text-anchor="middle" x="238.21" y="-278.3" font-family="Times,serif" font-size="14.00">Percent tumor nuclei</text>
<polyline fill="none" stroke="black" points="143.11,-271.5 333.3,-271.5 "/>
<text text-anchor="middle" x="238.21" y="-256.3" font-family="Times,serif" font-size="14.00">Number proliferating cells</text>
<polyline fill="none" stroke="black" points="143.11,-249.5 333.3,-249.5 "/>
<text text-anchor="middle" x="238.21" y="-234.3" font-family="Times,serif" font-size="14.00">Percent tumor cells</text>
<polyline fill="none" stroke="black" points="143.11,-227.5 333.3,-227.5 "/>
<text text-anchor="middle" x="238.21" y="-212.3" font-family="Times,serif" font-size="14.00">Percent monocyte infiltration</text>
<polyline fill="none" stroke="black" points="143.11,-205.5 333.3,-205.5 "/>
<text text-anchor="middle" x="238.21" y="-190.3" font-family="Times,serif" font-size="14.00">Percent lymphocyte infiltration</text>
<polyline fill="none" stroke="black" points="143.11,-183.5 333.3,-183.5 "/>
<text text-anchor="middle" x="238.21" y="-168.3" font-family="Times,serif" font-size="14.00">Percent neutrophile infiltration</text>
<polyline fill="none" stroke="black" points="143.11,-161.5 333.3,-161.5 "/>
<text text-anchor="middle" x="238.21" y="-146.3" font-family="Times,serif" font-size="14.00">ID</text>
<polyline fill="none" stroke="black" points="143.11,-139.5 333.3,-139.5 "/>
<text text-anchor="middle" x="238.21" y="-124.3" font-family="Times,serif" font-size="14.00">Percent stromal cells</text>
<polyline fill="none" stroke="black" points="333.3,-117.5 333.3,-425.5 "/>
<text text-anchor="middle" x="343.05" y="-267.3" font-family="Times,serif" font-size="14.00"> </text>
</g>
<!-- Slide&#45;&gt;Portion -->
<g id="edge16" class="edge">
<title>Slide&#45;&gt;Portion</title>
<path fill="none" stroke="black" d="M215.82,-425.71C215.82,-440.13 215.82,-453.98 215.82,-466.4"/>
<polygon fill="black" stroke="black" points="212.32,-466.48 215.82,-476.48 219.32,-466.48 212.32,-466.48"/>
<text text-anchor="middle" x="248.87" y="-446.8" font-family="Times,serif" font-size="14.00">has_portion</text>
</g>
<!-- Portion&#45;&gt;Sample -->
<g id="edge13" class="edge">
<title>Portion&#45;&gt;Sample</title>
<path fill="none" stroke="black" d="M195.92,-564.81C189.8,-580.31 183.87,-598.12 180.82,-615 154.61,-759.76 175.1,-799 180.82,-946 195.05,-1311.72 183.23,-1406.22 244.82,-1767 247.08,-1780.23 249.74,-1793.79 252.66,-1807.41"/>
<polygon fill="black" stroke="black" points="249.28,-1808.31 254.84,-1817.33 256.12,-1806.81 249.28,-1808.31"/>
<text text-anchor="middle" x="214.48" y="-966.8" font-family="Times,serif" font-size="14.00">has_sample</text>
</g>
<!-- Portion&#45;&gt;Analyte -->
<g id="edge3" class="edge">
<title>Portion&#45;&gt;Analyte</title>
<path fill="none" stroke="black" d="M315.71,-490.01C335.44,-481.54 355.17,-470.98 371.82,-458 402.95,-433.73 429.98,-400.27 451.4,-368.44"/>
<polygon fill="black" stroke="black" points="454.42,-370.23 457.01,-359.95 448.58,-366.37 454.42,-370.23"/>
<text text-anchor="middle" x="419.86" y="-446.8" font-family="Times,serif" font-size="14.00">has_analyte</text>
</g>
<!-- Portion&#45;&gt;Slide -->
<g id="edge28" class="edge">
<title>Portion&#45;&gt;Slide</title>
<path fill="none" stroke="black" d="M169.86,-476.49C165.76,-470.67 162.22,-464.47 159.71,-458 156.96,-450.88 155.13,-443.57 154.08,-436.15"/>
<polygon fill="black" stroke="black" points="157.55,-435.61 153.14,-425.98 150.58,-436.26 157.55,-435.61"/>
<text text-anchor="middle" x="185.87" y="-446.8" font-family="Times,serif" font-size="14.00">has_slide</text>
</g>
<!-- Portion&#45;&gt;File -->
<g id="edge21" class="edge">
<title>Portion&#45;&gt;File</title>
<path fill="none" stroke="black" d="M270.63,-564.6C275.39,-570.32 279.61,-576.48 282.82,-583 286.39,-590.26 289.45,-597.86 292.06,-605.67"/>
<polygon fill="black" stroke="black" points="288.73,-606.76 295.02,-615.29 295.42,-604.7 288.73,-606.76"/>
<text text-anchor="middle" x="309.59" y="-585.8" font-family="Times,serif" font-size="14.00">has_file</text>
</g>
<!-- Follow up&#45;&gt;Case -->
<g id="edge9" class="edge">
<title>Follow up&#45;&gt;Case</title>
<path fill="none" stroke="black" d="M844.34,-923.53C836.49,-937.03 828.94,-950.66 822.07,-964 818.15,-971.61 814.26,-979.32 810.39,-987.13"/>
<polygon fill="black" stroke="black" points="807.14,-985.81 805.88,-996.33 813.42,-988.9 807.14,-985.81"/>
<text text-anchor="middle" x="846.69" y="-966.8" font-family="Times,serif" font-size="14.00">has_case</text>
</g>
<!-- Follow up&#45;&gt;New tumor event -->
<g id="edge25" class="edge">
<title>Follow up&#45;&gt;New tumor event</title>
<path fill="none" stroke="black" d="M1100.58,-637.48C1111.61,-629.56 1122.74,-622 1133.82,-615 1168.59,-593.05 1209.36,-573.37 1245.35,-557.78"/>
<polygon fill="black" stroke="black" points="1247.06,-560.86 1254.88,-553.71 1244.31,-554.42 1247.06,-560.86"/>
<text text-anchor="middle" x="1250.19" y="-585.8" font-family="Times,serif" font-size="14.00">has_new_tumor_event</text>
</g>
<!-- File&#45;&gt;Sample -->
<g id="edge11" class="edge">
<title>File&#45;&gt;Sample</title>
<path fill="none" stroke="black" d="M313.32,-945.68C314.34,-962.66 315.21,-979.67 315.82,-996 328.57,-1338.43 321.61,-1424.38 315.82,-1767 315.6,-1780.01 315.31,-1793.42 314.97,-1806.94"/>
<polygon fill="black" stroke="black" points="311.47,-1807.2 314.71,-1817.29 318.46,-1807.38 311.47,-1807.2"/>
<text text-anchor="middle" x="356.48" y="-1377.3" font-family="Times,serif" font-size="14.00">has_sample</text>
</g>
<!-- File&#45;&gt;Case -->
<g id="edge10" class="edge">
<title>File&#45;&gt;Case</title>
<path fill="none" stroke="black" d="M410.27,-937.2C413.1,-940.2 415.95,-943.14 418.82,-946 428.51,-955.67 434.94,-953.58 443.82,-964 454.36,-976.36 464.53,-989.35 474.33,-1002.79"/>
<polygon fill="black" stroke="black" points="471.7,-1005.13 480.38,-1011.21 477.39,-1001.05 471.7,-1005.13"/>
<text text-anchor="middle" x="476.69" y="-966.8" font-family="Times,serif" font-size="14.00">has_case</text>
</g>
<!-- File&#45;&gt;Aliquot -->
<g id="edge1" class="edge">
<title>File&#45;&gt;Aliquot</title>
<path fill="none" stroke="black" d="M410.17,-621.15C413,-619.01 415.89,-616.96 418.82,-615 447.69,-595.73 461.37,-606.3 494.82,-597 539.78,-584.5 560.93,-597.08 594.82,-565 642.83,-519.54 635.84,-491.02 647.82,-426 672.69,-290.94 715.32,-236.6 647.82,-117 637.15,-98.1 620.33,-83.23 601.82,-71.64"/>
<polygon fill="black" stroke="black" points="603.6,-68.63 593.21,-66.54 600.03,-74.65 603.6,-68.63"/>
<text text-anchor="middle" x="677.09" y="-446.8" font-family="Times,serif" font-size="14.00">has_aliquot</text>
</g>
<!-- File&#45;&gt;Analyte -->
<g id="edge4" class="edge">
<title>File&#45;&gt;Analyte</title>
<path fill="none" stroke="black" d="M387.82,-615.42C412.3,-565.75 437.45,-510.44 456.82,-458 467.18,-429.95 476.18,-398.72 483.5,-370.01"/>
<polygon fill="black" stroke="black" points="486.98,-370.52 486.02,-359.97 480.19,-368.81 486.98,-370.52"/>
<text text-anchor="middle" x="482.86" y="-516.3" font-family="Times,serif" font-size="14.00">has_analyte</text>
</g>
<!-- File&#45;&gt;Portion -->
<g id="edge18" class="edge">
<title>File&#45;&gt;Portion</title>
<path fill="none" stroke="black" d="M221.43,-615.44C219.66,-609.27 218.08,-603.12 216.71,-597 215.12,-589.88 214.18,-582.28 213.68,-574.75"/>
<polygon fill="black" stroke="black" points="217.17,-574.42 213.26,-564.58 210.18,-574.72 217.17,-574.42"/>
<text text-anchor="middle" x="249.87" y="-585.8" font-family="Times,serif" font-size="14.00">has_portion</text>
</g>
<!-- Radiation therapy&#45;&gt;Case -->
<g id="edge7" class="edge">
<title>Radiation therapy&#45;&gt;Case</title>
<path fill="none" stroke="black" d="M1273.53,-813.7C1251.91,-854.6 1210.93,-926.08 1163.82,-978 1066.1,-1085.69 937.41,-1186.87 833.62,-1260.85"/>
<polygon fill="black" stroke="black" points="831.37,-1258.16 825.24,-1266.8 835.42,-1263.87 831.37,-1258.16"/>
<text text-anchor="middle" x="1196.69" y="-966.8" font-family="Times,serif" font-size="14.00">has_case</text>
</g>
<!-- Drug therapy&#45;&gt;Case -->
<g id="edge6" class="edge">
<title>Drug therapy&#45;&gt;Case</title>
<path fill="none" stroke="black" d="M578.35,-813.57C576.96,-852.54 575.77,-920.25 581.07,-978 581.32,-980.76 581.58,-983.53 581.85,-986.31"/>
<polygon fill="black" stroke="black" points="578.38,-986.82 582.87,-996.42 585.35,-986.12 578.38,-986.82"/>
<text text-anchor="middle" x="606.69" y="-966.8" font-family="Times,serif" font-size="14.00">has_case</text>
</g>
</g>
</svg>
