<?xml version="1.0" encoding="UTF-8" standalone="no"?>
<!DOCTYPE svg PUBLIC "-//W3C//DTD SVG 1.1//EN"
 "http://www.w3.org/Graphics/SVG/1.1/DTD/svg11.dtd">
<!-- Generated by graphviz version 2.43.0 (0)
 -->
<!-- Title: Perl Pages: 1 -->
<svg width="459pt" height="660pt"
 viewBox="0.00 0.00 458.79 660.00" xmlns="http://www.w3.org/2000/svg" xmlns:xlink="http://www.w3.org/1999/xlink">
<g id="graph0" class="graph" transform="scale(1 1) rotate(0) translate(4 656)">
<title>Perl</title>
<polygon fill="white" stroke="transparent" points="-4,4 -4,-656 454.79,-656 454.79,4 -4,4"/>
<!-- Study -->
<g id="node1" class="node">
<title>Study</title>
<path fill="none" stroke="black" d="M172.13,-585.5C172.13,-585.5 350.19,-585.5 350.19,-585.5 356.19,-585.5 362.19,-591.5 362.19,-597.5 362.19,-597.5 362.19,-639.5 362.19,-639.5 362.19,-645.5 356.19,-651.5 350.19,-651.5 350.19,-651.5 172.13,-651.5 172.13,-651.5 166.13,-651.5 160.13,-645.5 160.13,-639.5 160.13,-639.5 160.13,-597.5 160.13,-597.5 160.13,-591.5 166.13,-585.5 172.13,-585.5"/>
<text text-anchor="middle" x="184.47" y="-614.3" font-family="Times,serif" font-size="14.00">Study</text>
<polyline fill="none" stroke="black" points="208.8,-585.5 208.8,-651.5 "/>
<text text-anchor="middle" x="218.55" y="-614.3" font-family="Times,serif" font-size="14.00"> </text>
<polyline fill="none" stroke="black" points="228.3,-585.5 228.3,-651.5 "/>
<text text-anchor="middle" x="285.5" y="-636.3" font-family="Times,serif" font-size="14.00">Study date</text>
<polyline fill="none" stroke="black" points="228.3,-629.5 342.69,-629.5 "/>
<text text-anchor="middle" x="285.5" y="-614.3" font-family="Times,serif" font-size="14.00">Study description</text>
<polyline fill="none" stroke="black" points="228.3,-607.5 342.69,-607.5 "/>
<text text-anchor="middle" x="285.5" y="-592.3" font-family="Times,serif" font-size="14.00">Series count</text>
<polyline fill="none" stroke="black" points="342.69,-585.5 342.69,-651.5 "/>
<text text-anchor="middle" x="352.44" y="-614.3" font-family="Times,serif" font-size="14.00"> </text>
</g>
<!-- Investigation -->
<g id="node2" class="node">
<title>Investigation</title>
<path fill="none" stroke="black" d="M31.36,-0.5C31.36,-0.5 154.96,-0.5 154.96,-0.5 160.96,-0.5 166.96,-6.5 166.96,-12.5 166.96,-12.5 166.96,-24.5 166.96,-24.5 166.96,-30.5 160.96,-36.5 154.96,-36.5 154.96,-36.5 31.36,-36.5 31.36,-36.5 25.36,-36.5 19.36,-30.5 19.36,-24.5 19.36,-24.5 19.36,-12.5 19.36,-12.5 19.36,-6.5 25.36,-0.5 31.36,-0.5"/>
<text text-anchor="middle" x="63.91" y="-14.3" font-family="Times,serif" font-size="14.00">Investigation</text>
<polyline fill="none" stroke="black" points="108.46,-0.5 108.46,-36.5 "/>
<text text-anchor="middle" x="118.21" y="-14.3" font-family="Times,serif" font-size="14.00"> </text>
<polyline fill="none" stroke="black" points="127.96,-0.5 127.96,-36.5 "/>
<text text-anchor="middle" x="137.71" y="-14.3" font-family="Times,serif" font-size="14.00"> </text>
<polyline fill="none" stroke="black" points="147.46,-0.5 147.46,-36.5 "/>
<text text-anchor="middle" x="157.21" y="-14.3" font-family="Times,serif" font-size="14.00"> </text>
</g>
<!-- Study&#45;&gt;Investigation -->
<g id="edge7" class="edge">
<title>Study&#45;&gt;Investigation</title>
<path fill="none" stroke="black" d="M159.87,-593.36C123.99,-580.77 85.53,-562.12 57.16,-535 19.35,-498.86 19.31,-479.1 8.17,-428 -23.24,-283.93 49.03,-110.71 79.96,-45.77"/>
<polygon fill="black" stroke="black" points="83.17,-47.17 84.38,-36.65 76.87,-44.12 83.17,-47.17"/>
<text text-anchor="middle" x="58.15" y="-416.8" font-family="Times,serif" font-size="14.00">has_investigation</text>
</g>
<!-- Case -->
<g id="node3" class="node">
<title>Case</title>
<path fill="none" stroke="black" d="M78.39,-446.5C78.39,-446.5 245.92,-446.5 245.92,-446.5 251.92,-446.5 257.92,-452.5 257.92,-458.5 257.92,-458.5 257.92,-522.5 257.92,-522.5 257.92,-528.5 251.92,-534.5 245.92,-534.5 245.92,-534.5 78.39,-534.5 78.39,-534.5 72.39,-534.5 66.39,-528.5 66.39,-522.5 66.39,-522.5 66.39,-458.5 66.39,-458.5 66.39,-452.5 72.39,-446.5 78.39,-446.5"/>
<text text-anchor="middle" x="88" y="-486.3" font-family="Times,serif" font-size="14.00">Case</text>
<polyline fill="none" stroke="black" points="109.61,-446.5 109.61,-534.5 "/>
<text text-anchor="middle" x="119.36" y="-486.3" font-family="Times,serif" font-size="14.00"> </text>
<polyline fill="none" stroke="black" points="129.11,-446.5 129.11,-534.5 "/>
<text text-anchor="middle" x="183.76" y="-519.3" font-family="Times,serif" font-size="14.00">Disease type</text>
<polyline fill="none" stroke="black" points="129.11,-512.5 238.42,-512.5 "/>
<text text-anchor="middle" x="183.76" y="-497.3" font-family="Times,serif" font-size="14.00">Age at diagnosis</text>
<polyline fill="none" stroke="black" points="129.11,-490.5 238.42,-490.5 "/>
<text text-anchor="middle" x="183.76" y="-475.3" font-family="Times,serif" font-size="14.00">ID</text>
<polyline fill="none" stroke="black" points="129.11,-468.5 238.42,-468.5 "/>
<text text-anchor="middle" x="183.76" y="-453.3" font-family="Times,serif" font-size="14.00">Gender</text>
<polyline fill="none" stroke="black" points="238.42,-446.5 238.42,-534.5 "/>
<text text-anchor="middle" x="248.17" y="-486.3" font-family="Times,serif" font-size="14.00"> </text>
</g>
<!-- Study&#45;&gt;Case -->
<g id="edge3" class="edge">
<title>Study&#45;&gt;Case</title>
<path fill="none" stroke="black" d="M235.92,-585.38C225.67,-572.34 213.58,-556.95 202.19,-542.45"/>
<polygon fill="black" stroke="black" points="204.88,-540.2 195.94,-534.5 199.37,-544.53 204.88,-540.2"/>
<text text-anchor="middle" x="246.03" y="-555.8" font-family="Times,serif" font-size="14.00">has_case</text>
</g>
<!-- File -->
<g id="node4" class="node">
<title>File</title>
<path fill="none" stroke="black" d="M221.52,-87.5C221.52,-87.5 438.79,-87.5 438.79,-87.5 444.79,-87.5 450.79,-93.5 450.79,-99.5 450.79,-99.5 450.79,-383.5 450.79,-383.5 450.79,-389.5 444.79,-395.5 438.79,-395.5 438.79,-395.5 221.52,-395.5 221.52,-395.5 215.52,-395.5 209.52,-389.5 209.52,-383.5 209.52,-383.5 209.52,-99.5 209.52,-99.5 209.52,-93.5 215.52,-87.5 221.52,-87.5"/>
<text text-anchor="middle" x="228.41" y="-237.3" font-family="Times,serif" font-size="14.00">File</text>
<polyline fill="none" stroke="black" points="247.3,-87.5 247.3,-395.5 "/>
<text text-anchor="middle" x="257.05" y="-237.3" font-family="Times,serif" font-size="14.00"> </text>
<polyline fill="none" stroke="black" points="266.8,-87.5 266.8,-395.5 "/>
<text text-anchor="middle" x="349.05" y="-380.3" font-family="Times,serif" font-size="14.00">Data format</text>
<polyline fill="none" stroke="black" points="266.8,-373.5 431.29,-373.5 "/>
<text text-anchor="middle" x="349.05" y="-358.3" font-family="Times,serif" font-size="14.00">Software version</text>
<polyline fill="none" stroke="black" points="266.8,-351.5 431.29,-351.5 "/>
<text text-anchor="middle" x="349.05" y="-336.3" font-family="Times,serif" font-size="14.00">Series date</text>
<polyline fill="none" stroke="black" points="266.8,-329.5 431.29,-329.5 "/>
<text text-anchor="middle" x="349.05" y="-314.3" font-family="Times,serif" font-size="14.00">Body part examined</text>
<polyline fill="none" stroke="black" points="266.8,-307.5 431.29,-307.5 "/>
<text text-anchor="middle" x="349.05" y="-292.3" font-family="Times,serif" font-size="14.00">Image count</text>
<polyline fill="none" stroke="black" points="266.8,-285.5 431.29,-285.5 "/>
<text text-anchor="middle" x="349.05" y="-270.3" font-family="Times,serif" font-size="14.00">Modality</text>
<polyline fill="none" stroke="black" points="266.8,-263.5 431.29,-263.5 "/>
<text text-anchor="middle" x="349.05" y="-248.3" font-family="Times,serif" font-size="14.00">Data category</text>
<polyline fill="none" stroke="black" points="266.8,-241.5 431.29,-241.5 "/>
<text text-anchor="middle" x="349.05" y="-226.3" font-family="Times,serif" font-size="14.00">Protocol name</text>
<polyline fill="none" stroke="black" points="266.8,-219.5 431.29,-219.5 "/>
<text text-anchor="middle" x="349.05" y="-204.3" font-family="Times,serif" font-size="14.00">Series description</text>
<polyline fill="none" stroke="black" points="266.8,-197.5 431.29,-197.5 "/>
<text text-anchor="middle" x="349.05" y="-182.3" font-family="Times,serif" font-size="14.00">Manufacturer</text>
<polyline fill="none" stroke="black" points="266.8,-175.5 431.29,-175.5 "/>
<text text-anchor="middle" x="349.05" y="-160.3" font-family="Times,serif" font-size="14.00">Access level</text>
<polyline fill="none" stroke="black" points="266.8,-153.5 431.29,-153.5 "/>
<text text-anchor="middle" x="349.05" y="-138.3" font-family="Times,serif" font-size="14.00">Manufacturer model name</text>
<polyline fill="none" stroke="black" points="266.8,-131.5 431.29,-131.5 "/>
<text text-anchor="middle" x="349.05" y="-116.3" font-family="Times,serif" font-size="14.00">Series number</text>
<polyline fill="none" stroke="black" points="266.8,-109.5 431.29,-109.5 "/>
<text text-anchor="middle" x="349.05" y="-94.3" font-family="Times,serif" font-size="14.00">Series instance UID</text>
<polyline fill="none" stroke="black" points="431.29,-87.5 431.29,-395.5 "/>
<text text-anchor="middle" x="441.04" y="-237.3" font-family="Times,serif" font-size="14.00"> </text>
</g>
<!-- Study&#45;&gt;File -->
<g id="edge1" class="edge">
<title>Study&#45;&gt;File</title>
<path fill="none" stroke="black" d="M270.62,-585.3C272.24,-579.24 273.83,-572.95 275.16,-567 286.77,-514.87 297.24,-457.54 305.84,-405.76"/>
<polygon fill="black" stroke="black" points="309.31,-406.26 307.48,-395.82 302.4,-405.12 309.31,-406.26"/>
<text text-anchor="middle" x="320.93" y="-486.3" font-family="Times,serif" font-size="14.00">has_file</text>
</g>
<!-- Case&#45;&gt;Investigation -->
<g id="edge5" class="edge">
<title>Case&#45;&gt;Investigation</title>
<path fill="none" stroke="black" d="M127.5,-446.33C117.38,-431.28 107.59,-413.7 102.17,-396 63.62,-270.12 80.14,-109.34 88.94,-46.44"/>
<polygon fill="black" stroke="black" points="92.41,-46.93 90.38,-36.53 85.48,-45.92 92.41,-46.93"/>
<text text-anchor="middle" x="152.15" y="-237.3" font-family="Times,serif" font-size="14.00">has_investigation</text>
</g>
<!-- Case&#45;&gt;File -->
<g id="edge2" class="edge">
<title>Case&#45;&gt;File</title>
<path fill="none" stroke="black" d="M155.62,-446.27C155.85,-435.12 157.92,-423.58 163.61,-414 171.85,-400.12 182.64,-406.2 195.16,-396 197.41,-394.16 199.66,-392.28 201.91,-390.37"/>
<polygon fill="black" stroke="black" points="204.28,-392.95 209.5,-383.73 199.67,-387.68 204.28,-392.95"/>
<text text-anchor="middle" x="185.93" y="-416.8" font-family="Times,serif" font-size="14.00">has_file</text>
</g>
<!-- File&#45;&gt;Study -->
<g id="edge8" class="edge">
<title>File&#45;&gt;Study</title>
<path fill="none" stroke="black" d="M364.75,-395.82C368.48,-442.07 365.51,-491.95 347.16,-535 340.17,-551.39 328.15,-566.08 315.28,-578.37"/>
<polygon fill="black" stroke="black" points="312.68,-576.01 307.64,-585.32 317.39,-581.19 312.68,-576.01"/>
<text text-anchor="middle" x="393.16" y="-486.3" font-family="Times,serif" font-size="14.00">has_study</text>
</g>
<!-- File&#45;&gt;Investigation -->
<g id="edge6" class="edge">
<title>File&#45;&gt;Investigation</title>
<path fill="none" stroke="black" d="M209.15,-99.68C204.51,-95.32 199.84,-91.08 195.16,-87 175.86,-70.18 152.13,-54.23 132.41,-42.07"/>
<polygon fill="black" stroke="black" points="134.02,-38.96 123.66,-36.76 130.39,-44.94 134.02,-38.96"/>
<text text-anchor="middle" x="221.15" y="-57.8" font-family="Times,serif" font-size="14.00">has_investigation</text>
</g>
<!-- File&#45;&gt;Case -->
<g id="edge4" class="edge">
<title>File&#45;&gt;Case</title>
<path fill="none" stroke="black" d="M229.36,-395.73C221.9,-406.69 214.45,-417.54 207.16,-428 204.88,-431.26 202.52,-434.61 200.12,-437.98"/>
<polygon fill="black" stroke="black" points="197.11,-436.17 194.13,-446.34 202.8,-440.25 197.11,-436.17"/>
<text text-anchor="middle" x="239.03" y="-416.8" font-family="Times,serif" font-size="14.00">has_case</text>
</g>
</g>
</svg>
