<?xml version="1.0" encoding="UTF-8" standalone="no"?>
<!DOCTYPE svg PUBLIC "-//W3C//DTD SVG 1.1//EN"
 "http://www.w3.org/Graphics/SVG/1.1/DTD/svg11.dtd">
<!-- Generated by graphviz version 2.43.0 (0)
 -->
<!-- Title: Perl Pages: 1 -->
<svg width="674pt" height="1108pt"
 viewBox="0.00 0.00 673.91 1108.00" xmlns="http://www.w3.org/2000/svg" xmlns:xlink="http://www.w3.org/1999/xlink">
<g id="graph0" class="graph" transform="scale(1 1) rotate(0) translate(4 1104)">
<title>Perl</title>
<polygon fill="white" stroke="transparent" points="-4,4 -4,-1104 669.91,-1104 669.91,4 -4,4"/>
<!-- File -->
<g id="node1" class="node">
<title>File</title>
<path fill="none" stroke="black" d="M12,-161.5C12,-161.5 253.81,-161.5 253.81,-161.5 259.81,-161.5 265.81,-167.5 265.81,-173.5 265.81,-173.5 265.81,-633.5 265.81,-633.5 265.81,-639.5 259.81,-645.5 253.81,-645.5 253.81,-645.5 12,-645.5 12,-645.5 6,-645.5 0,-639.5 0,-633.5 0,-633.5 0,-173.5 0,-173.5 0,-167.5 6,-161.5 12,-161.5"/>
<text text-anchor="middle" x="18.89" y="-399.3" font-family="Times,serif" font-size="14.00">File</text>
<polyline fill="none" stroke="black" points="37.78,-161.5 37.78,-645.5 "/>
<text text-anchor="middle" x="47.53" y="-399.3" font-family="Times,serif" font-size="14.00"> </text>
<polyline fill="none" stroke="black" points="57.28,-161.5 57.28,-645.5 "/>
<text text-anchor="middle" x="151.79" y="-630.3" font-family="Times,serif" font-size="14.00">Sequencing Center</text>
<polyline fill="none" stroke="black" points="57.28,-623.5 246.31,-623.5 "/>
<text text-anchor="middle" x="151.79" y="-608.3" font-family="Times,serif" font-size="14.00">Library Layout</text>
<polyline fill="none" stroke="black" points="57.28,-601.5 246.31,-601.5 "/>
<text text-anchor="middle" x="151.79" y="-586.3" font-family="Times,serif" font-size="14.00">Study Accession</text>
<polyline fill="none" stroke="black" points="57.28,-579.5 246.31,-579.5 "/>
<text text-anchor="middle" x="151.79" y="-564.3" font-family="Times,serif" font-size="14.00">Release date</text>
<polyline fill="none" stroke="black" points="57.28,-557.5 246.31,-557.5 "/>
<text text-anchor="middle" x="151.79" y="-542.3" font-family="Times,serif" font-size="14.00">Coverage</text>
<polyline fill="none" stroke="black" points="57.28,-535.5 246.31,-535.5 "/>
<text text-anchor="middle" x="151.79" y="-520.3" font-family="Times,serif" font-size="14.00">Library Name</text>
<polyline fill="none" stroke="black" points="57.28,-513.5 246.31,-513.5 "/>
<text text-anchor="middle" x="151.79" y="-498.3" font-family="Times,serif" font-size="14.00">Alignment Provider</text>
<polyline fill="none" stroke="black" points="57.28,-491.5 246.31,-491.5 "/>
<text text-anchor="middle" x="151.79" y="-476.3" font-family="Times,serif" font-size="14.00">Data Format</text>
<polyline fill="none" stroke="black" points="57.28,-469.5 246.31,-469.5 "/>
<text text-anchor="middle" x="151.79" y="-454.3" font-family="Times,serif" font-size="14.00">Access Level</text>
<polyline fill="none" stroke="black" points="57.28,-447.5 246.31,-447.5 "/>
<text text-anchor="middle" x="151.79" y="-432.3" font-family="Times,serif" font-size="14.00">Assay Type</text>
<polyline fill="none" stroke="black" points="57.28,-425.5 246.31,-425.5 "/>
<text text-anchor="middle" x="151.79" y="-410.3" font-family="Times,serif" font-size="14.00">Consent</text>
<polyline fill="none" stroke="black" points="57.28,-403.5 246.31,-403.5 "/>
<text text-anchor="middle" x="151.79" y="-388.3" font-family="Times,serif" font-size="14.00">Study With Consent</text>
<polyline fill="none" stroke="black" points="57.28,-381.5 246.31,-381.5 "/>
<text text-anchor="middle" x="151.79" y="-366.3" font-family="Times,serif" font-size="14.00">Library Selection</text>
<polyline fill="none" stroke="black" points="57.28,-359.5 246.31,-359.5 "/>
<text text-anchor="middle" x="151.79" y="-344.3" font-family="Times,serif" font-size="14.00">Study Accession With Consent</text>
<polyline fill="none" stroke="black" points="57.28,-337.5 246.31,-337.5 "/>
<text text-anchor="middle" x="151.79" y="-322.3" font-family="Times,serif" font-size="14.00">Freeze</text>
<polyline fill="none" stroke="black" points="57.28,-315.5 246.31,-315.5 "/>
<text text-anchor="middle" x="151.79" y="-300.3" font-family="Times,serif" font-size="14.00">Assembly Name</text>
<polyline fill="none" stroke="black" points="57.28,-293.5 246.31,-293.5 "/>
<text text-anchor="middle" x="151.79" y="-278.3" font-family="Times,serif" font-size="14.00">Molecular Datatype</text>
<polyline fill="none" stroke="black" points="57.28,-271.5 246.31,-271.5 "/>
<text text-anchor="middle" x="151.79" y="-256.3" font-family="Times,serif" font-size="14.00">Instrument</text>
<polyline fill="none" stroke="black" points="57.28,-249.5 246.31,-249.5 "/>
<text text-anchor="middle" x="151.79" y="-234.3" font-family="Times,serif" font-size="14.00">GUID</text>
<polyline fill="none" stroke="black" points="57.28,-227.5 246.31,-227.5 "/>
<text text-anchor="middle" x="151.79" y="-212.3" font-family="Times,serif" font-size="14.00">Library Source</text>
<polyline fill="none" stroke="black" points="57.28,-205.5 246.31,-205.5 "/>
<text text-anchor="middle" x="151.79" y="-190.3" font-family="Times,serif" font-size="14.00">Platform</text>
<polyline fill="none" stroke="black" points="57.28,-183.5 246.31,-183.5 "/>
<text text-anchor="middle" x="151.79" y="-168.3" font-family="Times,serif" font-size="14.00">Data Type</text>
<polyline fill="none" stroke="black" points="246.31,-161.5 246.31,-645.5 "/>
<text text-anchor="middle" x="256.06" y="-399.3" font-family="Times,serif" font-size="14.00"> </text>
</g>
<!-- Study -->
<g id="node4" class="node">
<title>Study</title>
<path fill="none" stroke="black" d="M193.05,-0.5C193.05,-0.5 410.76,-0.5 410.76,-0.5 416.76,-0.5 422.76,-6.5 422.76,-12.5 422.76,-12.5 422.76,-98.5 422.76,-98.5 422.76,-104.5 416.76,-110.5 410.76,-110.5 410.76,-110.5 193.05,-110.5 193.05,-110.5 187.05,-110.5 181.05,-104.5 181.05,-98.5 181.05,-98.5 181.05,-12.5 181.05,-12.5 181.05,-6.5 187.05,-0.5 193.05,-0.5"/>
<text text-anchor="middle" x="205.39" y="-51.3" font-family="Times,serif" font-size="14.00">Study</text>
<polyline fill="none" stroke="black" points="229.72,-0.5 229.72,-110.5 "/>
<text text-anchor="middle" x="239.47" y="-51.3" font-family="Times,serif" font-size="14.00"> </text>
<polyline fill="none" stroke="black" points="249.22,-0.5 249.22,-110.5 "/>
<text text-anchor="middle" x="326.24" y="-95.3" font-family="Times,serif" font-size="14.00">Biospecimen Repository</text>
<polyline fill="none" stroke="black" points="249.22,-88.5 403.26,-88.5 "/>
<text text-anchor="middle" x="326.24" y="-73.3" font-family="Times,serif" font-size="14.00">dbGaP Accession</text>
<polyline fill="none" stroke="black" points="249.22,-66.5 403.26,-66.5 "/>
<text text-anchor="middle" x="326.24" y="-51.3" font-family="Times,serif" font-size="14.00">Study Design</text>
<polyline fill="none" stroke="black" points="249.22,-44.5 403.26,-44.5 "/>
<text text-anchor="middle" x="326.24" y="-29.3" font-family="Times,serif" font-size="14.00">Study Disease</text>
<polyline fill="none" stroke="black" points="249.22,-22.5 403.26,-22.5 "/>
<text text-anchor="middle" x="326.24" y="-7.3" font-family="Times,serif" font-size="14.00">Study Name</text>
<polyline fill="none" stroke="black" points="403.26,-0.5 403.26,-110.5 "/>
<text text-anchor="middle" x="413.01" y="-51.3" font-family="Times,serif" font-size="14.00"> </text>
</g>
<!-- File&#45;&gt;Study -->
<g id="edge5" class="edge">
<title>File&#45;&gt;Study</title>
<path fill="none" stroke="black" d="M213.48,-161.44C219.29,-150.27 225.43,-139.39 231.91,-129 234.03,-125.59 236.34,-122.21 238.78,-118.88"/>
<polygon fill="black" stroke="black" points="241.74,-120.77 245.09,-110.71 236.21,-116.49 241.74,-120.77"/>
<text text-anchor="middle" x="259.91" y="-131.8" font-family="Times,serif" font-size="14.00">has_study</text>
</g>
<!-- Sample -->
<g id="node2" class="node">
<title>Sample</title>
<path fill="none" stroke="black" d="M220.73,-696.5C220.73,-696.5 411.08,-696.5 411.08,-696.5 417.08,-696.5 423.08,-702.5 423.08,-708.5 423.08,-708.5 423.08,-838.5 423.08,-838.5 423.08,-844.5 417.08,-850.5 411.08,-850.5 411.08,-850.5 220.73,-850.5 220.73,-850.5 214.73,-850.5 208.73,-844.5 208.73,-838.5 208.73,-838.5 208.73,-708.5 208.73,-708.5 208.73,-702.5 214.73,-696.5 220.73,-696.5"/>
<text text-anchor="middle" x="237.72" y="-769.3" font-family="Times,serif" font-size="14.00">Sample</text>
<polyline fill="none" stroke="black" points="266.72,-696.5 266.72,-850.5 "/>
<text text-anchor="middle" x="276.47" y="-769.3" font-family="Times,serif" font-size="14.00"> </text>
<polyline fill="none" stroke="black" points="286.22,-696.5 286.22,-850.5 "/>
<text text-anchor="middle" x="344.9" y="-835.3" font-family="Times,serif" font-size="14.00">Body Site</text>
<polyline fill="none" stroke="black" points="286.22,-828.5 403.58,-828.5 "/>
<text text-anchor="middle" x="344.9" y="-813.3" font-family="Times,serif" font-size="14.00">Biosample ID</text>
<polyline fill="none" stroke="black" points="286.22,-806.5 403.58,-806.5 "/>
<text text-anchor="middle" x="344.9" y="-791.3" font-family="Times,serif" font-size="14.00">Sra Sample ID</text>
<polyline fill="none" stroke="black" points="286.22,-784.5 403.58,-784.5 "/>
<text text-anchor="middle" x="344.9" y="-769.3" font-family="Times,serif" font-size="14.00">Histological Type</text>
<polyline fill="none" stroke="black" points="286.22,-762.5 403.58,-762.5 "/>
<text text-anchor="middle" x="344.9" y="-747.3" font-family="Times,serif" font-size="14.00">dbGaP Sample ID</text>
<polyline fill="none" stroke="black" points="286.22,-740.5 403.58,-740.5 "/>
<text text-anchor="middle" x="344.9" y="-725.3" font-family="Times,serif" font-size="14.00">Analyte Type</text>
<polyline fill="none" stroke="black" points="286.22,-718.5 403.58,-718.5 "/>
<text text-anchor="middle" x="344.9" y="-703.3" font-family="Times,serif" font-size="14.00">is Tumor</text>
<polyline fill="none" stroke="black" points="403.58,-696.5 403.58,-850.5 "/>
<text text-anchor="middle" x="413.33" y="-769.3" font-family="Times,serif" font-size="14.00"> </text>
</g>
<!-- Sample&#45;&gt;File -->
<g id="edge7" class="edge">
<title>Sample&#45;&gt;File</title>
<path fill="none" stroke="black" d="M255.61,-696.28C251.62,-690.21 247.81,-684.08 244.35,-678 240.02,-670.39 235.77,-662.58 231.61,-654.63"/>
<polygon fill="black" stroke="black" points="234.65,-652.88 226.96,-645.6 228.43,-656.09 234.65,-652.88"/>
<text text-anchor="middle" x="266.68" y="-666.8" font-family="Times,serif" font-size="14.00">has_file</text>
</g>
<!-- Topmed Project -->
<g id="node3" class="node">
<title>Topmed Project</title>
<path fill="none" stroke="black" d="M387.83,-385.5C387.83,-385.5 553.98,-385.5 553.98,-385.5 559.98,-385.5 565.98,-391.5 565.98,-397.5 565.98,-397.5 565.98,-409.5 565.98,-409.5 565.98,-415.5 559.98,-421.5 553.98,-421.5 553.98,-421.5 387.83,-421.5 387.83,-421.5 381.83,-421.5 375.83,-415.5 375.83,-409.5 375.83,-409.5 375.83,-397.5 375.83,-397.5 375.83,-391.5 381.83,-385.5 387.83,-385.5"/>
<text text-anchor="middle" x="428.24" y="-399.3" font-family="Times,serif" font-size="14.00">Topmed Project</text>
<polyline fill="none" stroke="black" points="480.66,-385.5 480.66,-421.5 "/>
<text text-anchor="middle" x="490.41" y="-399.3" font-family="Times,serif" font-size="14.00"> </text>
<polyline fill="none" stroke="black" points="500.16,-385.5 500.16,-421.5 "/>
<text text-anchor="middle" x="523.32" y="-399.3" font-family="Times,serif" font-size="14.00">None</text>
<polyline fill="none" stroke="black" points="546.48,-385.5 546.48,-421.5 "/>
<text text-anchor="middle" x="556.23" y="-399.3" font-family="Times,serif" font-size="14.00"> </text>
</g>
<!-- Sample&#45;&gt;Topmed Project -->
<g id="edge1" class="edge">
<title>Sample&#45;&gt;Topmed Project</title>
<path fill="none" stroke="black" d="M322.51,-696.38C325.66,-684.96 330.11,-673.75 336.38,-664 343.89,-652.32 353.07,-656.7 361.91,-646 417.32,-578.9 450.36,-479.08 463.83,-431.55"/>
<polygon fill="black" stroke="black" points="467.26,-432.27 466.55,-421.7 460.52,-430.4 467.26,-432.27"/>
<text text-anchor="middle" x="393.67" y="-666.8" font-family="Times,serif" font-size="14.00">has_topmed_project</text>
</g>
<!-- Sample&#45;&gt;Study -->
<g id="edge4" class="edge">
<title>Sample&#45;&gt;Study</title>
<path fill="none" stroke="black" d="M312.59,-696.25C311.96,-679.69 311.35,-662.26 310.91,-646 305.67,-454.95 303.28,-228.97 302.38,-120.67"/>
<polygon fill="black" stroke="black" points="305.88,-120.53 302.29,-110.56 298.88,-120.59 305.88,-120.53"/>
<text text-anchor="middle" x="338.91" y="-399.3" font-family="Times,serif" font-size="14.00">has_study</text>
</g>
<!-- Subject -->
<g id="node5" class="node">
<title>Subject</title>
<path fill="none" stroke="black" d="M289.89,-901.5C289.89,-901.5 551.92,-901.5 551.92,-901.5 557.92,-901.5 563.92,-907.5 563.92,-913.5 563.92,-913.5 563.92,-1087.5 563.92,-1087.5 563.92,-1093.5 557.92,-1099.5 551.92,-1099.5 551.92,-1099.5 289.89,-1099.5 289.89,-1099.5 283.89,-1099.5 277.89,-1093.5 277.89,-1087.5 277.89,-1087.5 277.89,-913.5 277.89,-913.5 277.89,-907.5 283.89,-901.5 289.89,-901.5"/>
<text text-anchor="middle" x="306.89" y="-996.3" font-family="Times,serif" font-size="14.00">Subject</text>
<polyline fill="none" stroke="black" points="335.89,-901.5 335.89,-1099.5 "/>
<text text-anchor="middle" x="345.64" y="-996.3" font-family="Times,serif" font-size="14.00"> </text>
<polyline fill="none" stroke="black" points="355.39,-901.5 355.39,-1099.5 "/>
<text text-anchor="middle" x="449.9" y="-1084.3" font-family="Times,serif" font-size="14.00">Study Accession With Consent</text>
<polyline fill="none" stroke="black" points="355.39,-1077.5 544.42,-1077.5 "/>
<text text-anchor="middle" x="449.9" y="-1062.3" font-family="Times,serif" font-size="14.00">Subject Is Affected</text>
<polyline fill="none" stroke="black" points="355.39,-1055.5 544.42,-1055.5 "/>
<text text-anchor="middle" x="449.9" y="-1040.3" font-family="Times,serif" font-size="14.00">Study Accession</text>
<polyline fill="none" stroke="black" points="355.39,-1033.5 544.42,-1033.5 "/>
<text text-anchor="middle" x="449.9" y="-1018.3" font-family="Times,serif" font-size="14.00">dbGaP Subject ID</text>
<polyline fill="none" stroke="black" points="355.39,-1011.5 544.42,-1011.5 "/>
<text text-anchor="middle" x="449.9" y="-996.3" font-family="Times,serif" font-size="14.00">DataStage Subject ID</text>
<polyline fill="none" stroke="black" points="355.39,-989.5 544.42,-989.5 "/>
<text text-anchor="middle" x="449.9" y="-974.3" font-family="Times,serif" font-size="14.00">Study With Consent</text>
<polyline fill="none" stroke="black" points="355.39,-967.5 544.42,-967.5 "/>
<text text-anchor="middle" x="449.9" y="-952.3" font-family="Times,serif" font-size="14.00">Organism</text>
<polyline fill="none" stroke="black" points="355.39,-945.5 544.42,-945.5 "/>
<text text-anchor="middle" x="449.9" y="-930.3" font-family="Times,serif" font-size="14.00">Sex</text>
<polyline fill="none" stroke="black" points="355.39,-923.5 544.42,-923.5 "/>
<text text-anchor="middle" x="449.9" y="-908.3" font-family="Times,serif" font-size="14.00">Consent</text>
<polyline fill="none" stroke="black" points="544.42,-901.5 544.42,-1099.5 "/>
<text text-anchor="middle" x="554.17" y="-996.3" font-family="Times,serif" font-size="14.00"> </text>
</g>
<!-- Subject&#45;&gt;File -->
<g id="edge6" class="edge">
<title>Subject&#45;&gt;File</title>
<path fill="none" stroke="black" d="M277.58,-951.46C231.06,-928.51 184.29,-895.96 156.35,-851 120.65,-793.54 106.54,-723.45 103.46,-656"/>
<polygon fill="black" stroke="black" points="106.95,-655.49 103.07,-645.63 99.95,-655.75 106.95,-655.49"/>
<text text-anchor="middle" x="178.68" y="-769.3" font-family="Times,serif" font-size="14.00">has_file</text>
</g>
<!-- Subject&#45;&gt;Sample -->
<g id="edge8" class="edge">
<title>Subject&#45;&gt;Sample</title>
<path fill="none" stroke="black" d="M375.16,-901.47C368.69,-887.61 362.09,-873.46 355.74,-859.87"/>
<polygon fill="black" stroke="black" points="358.8,-858.14 351.4,-850.56 352.46,-861.1 358.8,-858.14"/>
<text text-anchor="middle" x="398.56" y="-871.8" font-family="Times,serif" font-size="14.00">has_sample</text>
</g>
<!-- Subject&#45;&gt;Topmed Project -->
<g id="edge2" class="edge">
<title>Subject&#45;&gt;Topmed Project</title>
<path fill="none" stroke="black" d="M433.02,-901.33C433.69,-895.13 434.32,-888.98 434.91,-883 451.62,-711.86 464.78,-505.63 469.26,-432.15"/>
<polygon fill="black" stroke="black" points="472.77,-432.1 469.88,-421.91 465.78,-431.68 472.77,-432.1"/>
<text text-anchor="middle" x="506.67" y="-769.3" font-family="Times,serif" font-size="14.00">has_topmed_project</text>
</g>
<!-- Subject&#45;&gt;Study -->
<g id="edge3" class="edge">
<title>Subject&#45;&gt;Study</title>
<path fill="none" stroke="black" d="M536.9,-901.2C549.32,-885.68 560.22,-868.82 567.91,-851 621.19,-727.47 661.43,-286.76 574.91,-161 542.61,-114.06 486.14,-88.2 432.91,-73.95"/>
<polygon fill="black" stroke="black" points="433.57,-70.5 423.02,-71.42 431.84,-77.28 433.57,-70.5"/>
<text text-anchor="middle" x="637.91" y="-666.8" font-family="Times,serif" font-size="14.00">has_study</text>
</g>
</g>
</svg>
